<svg xmlns = "http://www.w3.org/2000/svg" width = "1000" height = "1000">
<g>
<polygon points = "459.077, 807.877 440.855, 899.001 413.256, 910.373 408.610, 909.283 339.236, 861.416 330.146, 852.490 401.576, 771.797 "
fill = "none" stroke = "black"/>
</g>
<g>
<polygon points = "55.715, 757.676 39.913, 828.258 0.000, 826.070 0.000, 787.897 "
fill = "none" stroke = "black"/>
</g>
<g>
<polygon points = "661.728, 950.219 658.461, 1000.000 535.056, 1000.000 535.027, 961.583 580.098, 939.131 "
fill = "none" stroke = "black"/>
</g>
<g>
<polygon points = "882.001, 539.939 867.729, 569.128 767.199, 533.894 764.455, 518.408 792.584, 509.198 "
fill = "none" stroke = "black"/>
</g>
<g>
<polygon points = "640.160, 882.942 605.616, 895.628 555.333, 856.413 596.691, 811.380 "
fill = "none" stroke = "black"/>
</g>
<g>
<polygon points = "863.707, 627.475 828.808, 640.353 763.336, 569.644 767.199, 533.894 867.729, 569.128 "
fill = "none" stroke = "black"/>
</g>
<g>
<polygon points = "189.049, 106.437 230.588, 119.550 246.975, 137.443 236.283, 160.063 205.055, 188.704 190.833, 184.993 158.298, 153.880 168.045, 130.954 "
fill = "none" stroke = "black"/>
</g>
<g>
<polygon points = "168.045, 130.954 158.298, 153.880 130.531, 163.492 111.656, 167.228 91.838, 134.572 99.437, 78.978 "
fill = "none" stroke = "black"/>
</g>
<g>
<polygon points = "20.968, 354.390 105.298, 411.229 106.963, 459.421 75.983, 499.817 0.000, 445.430 0.000, 354.724 "
fill = "none" stroke = "black"/>
</g>
<g>
<polygon points = "822.674, 747.268 749.884, 718.973 812.831, 664.074 825.682, 694.783 "
fill = "none" stroke = "black"/>
</g>
<g>
<polygon points = "598.873, 221.115 565.185, 157.615 594.445, 144.472 660.398, 194.069 657.147, 213.046 "
fill = "none" stroke = "black"/>
</g>
<g>
<polygon points = "689.073, 417.829 662.475, 362.661 708.007, 319.573 714.231, 321.709 732.053, 369.029 705.711, 412.927 697.449, 417.904 "
fill = "none" stroke = "black"/>
</g>
<g>
<polygon points = "534.251, 631.965 484.935, 676.565 473.940, 659.104 499.349, 600.661 512.503, 600.564 "
fill = "none" stroke = "black"/>
</g>
<g>
<polygon points = "838.178, 1000.000 749.773, 1000.000 736.538, 926.480 756.627, 904.467 768.898, 901.375 "
fill = "none" stroke = "black"/>
</g>
<g>
<polygon points = "702.554, 152.397 727.469, 158.531 725.242, 251.314 670.776, 255.402 657.147, 213.046 660.398, 194.069 "
fill = "none" stroke = "black"/>
</g>
<g>
<polygon points = "277.776, 137.816 246.975, 137.443 230.588, 119.550 292.993, 0.000 294.451, 0.000 "
fill = "none" stroke = "black"/>
</g>
<g>
<polygon points = "684.788, 751.869 601.494, 789.435 541.203, 744.138 587.441, 683.373 642.253, 689.785 656.638, 702.271 690.857, 744.212 "
fill = "none" stroke = "black"/>
</g>
<g>
<polygon points = "595.077, 142.688 594.445, 144.472 565.185, 157.615 535.691, 161.344 523.848, 142.629 518.177, 36.464 "
fill = "none" stroke = "black"/>
</g>
<g>
<polygon points = "925.472, 755.333 825.682, 694.783 812.831, 664.074 812.980, 663.487 828.808, 640.353 863.707, 627.475 927.451, 652.932 940.103, 668.081 "
fill = "none" stroke = "black"/>
</g>
<g>
<polygon points = "766.226, 809.747 799.566, 876.362 768.898, 901.375 756.627, 904.467 714.804, 854.118 "
fill = "none" stroke = "black"/>
</g>
<g>
<polygon points = "75.983, 499.817 76.013, 503.621 69.645, 540.016 1.520, 609.761 0.000, 610.040 0.000, 445.430 "
fill = "none" stroke = "black"/>
</g>
<g>
<polygon points = "883.002, 427.128 870.811, 414.335 909.197, 345.109 939.774, 326.462 1000.000, 342.729 1000.000, 402.983 "
fill = "none" stroke = "black"/>
</g>
<g>
<polygon points = "421.210, 56.756 426.681, 128.390 425.788, 130.600 371.359, 131.255 356.747, 127.039 340.391, 40.169 "
fill = "none" stroke = "black"/>
</g>
<g>
<polygon points = "574.428, 429.636 520.283, 515.803 482.040, 505.424 469.627, 483.765 558.053, 422.259 573.682, 421.139 575.818, 421.086 "
fill = "none" stroke = "black"/>
</g>
<g>
<polygon points = "985.012, 109.096 899.799, 141.886 842.541, 122.838 836.554, 105.766 842.025, 94.509 844.111, 91.568 897.567, 66.048 "
fill = "none" stroke = "black"/>
</g>
<g>
<polygon points = "873.961, 797.809 856.791, 867.516 799.566, 876.362 766.226, 809.747 765.239, 787.554 831.708, 776.452 "
fill = "none" stroke = "black"/>
</g>
<g>
<polygon points = "14.914, 95.890 0.000, 96.233 0.000, 0.000 56.780, 0.000 "
fill = "none" stroke = "black"/>
</g>
<g>
<polygon points = "841.367, 18.827 792.273, 29.317 744.579, 23.354 740.695, 0.000 852.717, 0.000 "
fill = "none" stroke = "black"/>
</g>
<g>
<polygon points = "458.094, 472.291 405.827, 447.841 452.917, 386.941 487.443, 364.585 503.679, 405.072 "
fill = "none" stroke = "black"/>
</g>
<g>
<polygon points = "435.187, 684.989 385.565, 703.075 379.968, 685.065 387.956, 668.605 399.690, 659.651 427.225, 649.906 "
fill = "none" stroke = "black"/>
</g>
<g>
<polygon points = "65.247, 325.097 151.797, 316.499 186.587, 373.246 105.298, 411.229 20.968, 354.390 "
fill = "none" stroke = "black"/>
</g>
<g>
<polygon points = "671.403, 933.793 736.538, 926.480 749.773, 1000.000 658.461, 1000.000 661.728, 950.219 "
fill = "none" stroke = "black"/>
</g>
<g>
<polygon points = "531.828, 523.951 525.439, 584.715 512.503, 600.564 499.349, 600.661 449.055, 571.285 482.040, 505.424 520.283, 515.803 "
fill = "none" stroke = "black"/>
</g>
<g>
<polygon points = "402.073, 611.529 434.309, 645.871 427.225, 649.906 399.690, 659.651 "
fill = "none" stroke = "black"/>
</g>
<g>
<polygon points = "81.801, 763.053 116.869, 770.244 118.490, 835.177 117.097, 836.104 64.195, 830.663 "
fill = "none" stroke = "black"/>
</g>
<g>
<polygon points = "490.743, 354.823 494.376, 341.663 546.404, 324.805 569.119, 355.952 579.866, 379.375 578.017, 419.280 575.818, 421.086 573.682, 421.139 "
fill = "none" stroke = "black"/>
</g>
<g>
<polygon points = "594.370, 526.905 591.014, 532.448 531.828, 523.951 520.283, 515.803 574.428, 429.636 "
fill = "none" stroke = "black"/>
</g>
<g>
<polygon points = "162.753, 563.200 167.550, 516.868 177.131, 495.841 246.527, 526.383 252.625, 543.565 227.063, 574.190 "
fill = "none" stroke = "black"/>
</g>
<g>
<polygon points = "162.695, 721.036 91.363, 647.117 133.950, 632.672 149.830, 648.615 167.321, 681.157 "
fill = "none" stroke = "black"/>
</g>
<g>
<polygon points = "717.320, 611.132 787.569, 656.449 719.434, 656.799 711.818, 623.087 "
fill = "none" stroke = "black"/>
</g>
<g>
<polygon points = "787.208, 97.742 739.748, 43.539 744.579, 23.354 792.273, 29.317 842.025, 94.509 836.554, 105.766 "
fill = "none" stroke = "black"/>
</g>
<g>
<polygon points = "49.656, 891.326 45.927, 832.824 64.195, 830.663 117.097, 836.104 80.108, 908.074 "
fill = "none" stroke = "black"/>
</g>
<g>
<polygon points = "84.276, 943.787 106.644, 1000.000 21.948, 1000.000 "
fill = "none" stroke = "black"/>
</g>
<g>
<polygon points = "57.701, 755.095 58.359, 755.011 81.801, 763.053 64.195, 830.663 45.927, 832.824 39.913, 828.258 55.715, 757.676 "
fill = "none" stroke = "black"/>
</g>
<g>
<polygon points = "736.060, 159.279 802.694, 208.152 760.978, 256.460 725.242, 251.314 727.469, 158.531 "
fill = "none" stroke = "black"/>
</g>
<g>
<polygon points = "632.206, 494.801 676.979, 503.359 674.252, 535.331 626.618, 503.160 "
fill = "none" stroke = "black"/>
</g>
<g>
<polygon points = "503.679, 405.072 487.443, 364.585 490.743, 354.823 573.682, 421.139 558.053, 422.259 "
fill = "none" stroke = "black"/>
</g>
<g>
<polygon points = "387.263, 203.818 390.982, 199.074 442.371, 188.939 472.814, 227.794 456.495, 248.299 399.079, 236.760 "
fill = "none" stroke = "black"/>
</g>
<g>
<polygon points = "690.988, 629.906 656.638, 702.271 642.253, 689.785 644.354, 629.528 "
fill = "none" stroke = "black"/>
</g>
<g>
<polygon points = "718.433, 605.340 668.173, 568.422 678.563, 545.032 746.265, 517.997 762.612, 516.582 762.946, 516.842 764.455, 518.408 767.199, 533.894 763.336, 569.644 "
fill = "none" stroke = "black"/>
</g>
<g>
<polygon points = "762.955, 301.020 767.669, 295.773 770.795, 297.264 795.831, 372.307 758.830, 359.540 "
fill = "none" stroke = "black"/>
</g>
<g>
<polygon points = "257.325, 544.047 283.038, 588.497 245.189, 642.801 235.088, 627.921 227.063, 574.190 252.625, 543.565 "
fill = "none" stroke = "black"/>
</g>
<g>
<polygon points = "39.667, 148.720 36.402, 211.119 0.000, 223.203 0.000, 136.125 "
fill = "none" stroke = "black"/>
</g>
<g>
<polygon points = "572.014, 640.241 600.024, 596.708 612.711, 585.684 644.354, 629.528 642.253, 689.785 587.441, 683.373 "
fill = "none" stroke = "black"/>
</g>
<g>
<polygon points = "500.352, 706.909 489.521, 698.150 486.657, 690.012 484.935, 676.565 534.251, 631.965 563.992, 639.920 "
fill = "none" stroke = "black"/>
</g>
<g>
<polygon points = "52.948, 131.947 30.264, 97.672 95.836, 55.191 99.437, 78.978 91.838, 134.572 "
fill = "none" stroke = "black"/>
</g>
<g>
<polygon points = "533.050, 743.960 541.203, 744.138 601.494, 789.435 600.746, 795.177 596.691, 811.380 555.333, 856.413 545.129, 860.984 482.934, 800.573 "
fill = "none" stroke = "black"/>
</g>
<g>
<polygon points = "859.100, 262.064 806.754, 207.532 818.722, 192.324 869.143, 191.575 903.079, 201.155 897.264, 268.237 "
fill = "none" stroke = "black"/>
</g>
<g>
<polygon points = "831.708, 776.452 765.239, 787.554 709.664, 740.947 749.884, 718.973 822.674, 747.268 "
fill = "none" stroke = "black"/>
</g>
<g>
<polygon points = "280.790, 796.265 239.271, 740.409 266.859, 689.169 345.012, 741.253 "
fill = "none" stroke = "black"/>
</g>
<g>
<polygon points = "191.028, 669.771 167.321, 681.157 149.830, 648.615 181.897, 645.812 "
fill = "none" stroke = "black"/>
</g>
<g>
<polygon points = "162.288, 228.361 156.636, 244.750 126.367, 213.765 107.810, 173.705 111.656, 167.228 130.531, 163.492 "
fill = "none" stroke = "black"/>
</g>
<g>
<polygon points = "940.103, 668.081 927.451, 652.932 976.404, 509.310 1000.000, 500.122 1000.000, 659.884 "
fill = "none" stroke = "black"/>
</g>
<g>
<polygon points = "257.891, 904.399 177.494, 914.594 161.903, 852.420 181.396, 836.745 185.333, 837.971 263.903, 893.723 "
fill = "none" stroke = "black"/>
</g>
<g>
<polygon points = "812.980, 663.487 787.569, 656.449 717.320, 611.132 718.433, 605.340 763.336, 569.644 828.808, 640.353 "
fill = "none" stroke = "black"/>
</g>
<g>
<polygon points = "375.890, 446.262 354.413, 501.956 268.754, 484.004 294.177, 443.239 353.470, 425.795 368.399, 436.508 "
fill = "none" stroke = "black"/>
</g>
<g>
<polygon points = "1.520, 609.761 78.928, 648.722 84.128, 681.688 58.359, 755.011 57.701, 755.095 0.000, 708.753 0.000, 610.040 "
fill = "none" stroke = "black"/>
</g>
<g>
<polygon points = "396.295, 750.290 389.245, 741.526 385.565, 703.075 435.187, 684.989 486.657, 690.012 489.521, 698.150 "
fill = "none" stroke = "black"/>
</g>
<g>
<polygon points = "348.085, 958.183 408.610, 909.283 413.256, 910.373 414.066, 930.568 410.721, 955.524 392.461, 1000.000 338.768, 1000.000 "
fill = "none" stroke = "black"/>
</g>
<g>
<polygon points = "445.272, 1000.000 392.461, 1000.000 410.721, 955.524 "
fill = "none" stroke = "black"/>
</g>
<g>
<polygon points = "825.855, 414.641 835.975, 478.933 792.584, 509.198 764.455, 518.408 762.946, 516.842 "
fill = "none" stroke = "black"/>
</g>
<g>
<polygon points = "39.913, 828.258 45.927, 832.824 49.656, 891.326 0.000, 896.628 0.000, 826.070 "
fill = "none" stroke = "black"/>
</g>
<g>
<polygon points = "96.295, 254.114 126.367, 213.765 156.636, 244.750 160.009, 268.866 "
fill = "none" stroke = "black"/>
</g>
<g>
<polygon points = "263.903, 893.723 185.333, 837.971 293.973, 841.463 298.649, 848.939 "
fill = "none" stroke = "black"/>
</g>
<g>
<polygon points = "825.856, 414.602 812.654, 403.450 809.330, 379.905 829.893, 344.155 909.197, 345.109 870.811, 414.335 "
fill = "none" stroke = "black"/>
</g>
<g>
<polygon points = "782.708, 416.968 759.097, 506.412 697.449, 417.904 705.711, 412.927 "
fill = "none" stroke = "black"/>
</g>
<g>
<polygon points = "897.567, 66.048 844.111, 91.568 841.367, 18.827 852.717, 0.000 898.522, 0.000 "
fill = "none" stroke = "black"/>
</g>
<g>
<polygon points = "467.867, 92.721 492.419, 139.032 432.732, 139.084 425.788, 130.600 426.681, 128.390 "
fill = "none" stroke = "black"/>
</g>
<g>
<polygon points = "340.391, 40.169 356.747, 127.039 318.452, 159.330 277.776, 137.816 294.451, 0.000 311.357, 0.000 "
fill = "none" stroke = "black"/>
</g>
<g>
<polygon points = "196.067, 810.618 188.936, 817.186 134.673, 756.605 143.266, 745.441 163.969, 732.228 228.948, 742.777 "
fill = "none" stroke = "black"/>
</g>
<g>
<polygon points = "156.424, 941.913 177.494, 914.594 257.891, 904.399 262.126, 919.372 253.029, 941.540 203.880, 1000.000 175.805, 1000.000 "
fill = "none" stroke = "black"/>
</g>
<g>
<polygon points = "705.461, 740.415 719.434, 656.799 787.569, 656.449 812.980, 663.487 812.831, 664.074 749.884, 718.973 709.664, 740.947 "
fill = "none" stroke = "black"/>
</g>
<g>
<polygon points = "482.934, 800.573 545.129, 860.984 513.606, 925.430 440.855, 899.001 459.077, 807.877 "
fill = "none" stroke = "black"/>
</g>
<g>
<polygon points = "670.776, 255.402 668.505, 261.602 639.068, 288.001 560.313, 286.704 550.441, 259.501 598.873, 221.115 657.147, 213.046 "
fill = "none" stroke = "black"/>
</g>
<g>
<polygon points = "758.830, 359.540 795.831, 372.307 809.330, 379.905 812.654, 403.450 782.708, 416.968 705.711, 412.927 732.053, 369.029 "
fill = "none" stroke = "black"/>
</g>
<g>
<polygon points = "57.701, 755.095 55.715, 757.676 0.000, 787.897 0.000, 708.753 "
fill = "none" stroke = "black"/>
</g>
<g>
<polygon points = "345.012, 741.253 266.859, 689.169 269.474, 670.630 296.795, 656.946 379.968, 685.065 385.565, 703.075 389.245, 741.526 "
fill = "none" stroke = "black"/>
</g>
<g>
<polygon points = "652.495, 355.473 640.681, 320.334 639.068, 288.001 668.505, 261.602 708.007, 319.573 662.475, 362.661 "
fill = "none" stroke = "black"/>
</g>
<g>
<polygon points = "446.544, 641.393 443.743, 574.348 449.055, 571.285 499.349, 600.661 473.940, 659.104 "
fill = "none" stroke = "black"/>
</g>
<g>
<polygon points = "472.102, 1000.000 445.272, 1000.000 410.721, 955.524 414.066, 930.568 "
fill = "none" stroke = "black"/>
</g>
<g>
<polygon points = "421.519, 348.160 437.622, 321.175 454.774, 310.270 494.376, 341.663 490.743, 354.823 487.443, 364.585 452.917, 386.941 "
fill = "none" stroke = "black"/>
</g>
<g>
<polygon points = "84.276, 943.787 91.689, 933.748 156.424, 941.913 175.805, 1000.000 106.644, 1000.000 "
fill = "none" stroke = "black"/>
</g>
<g>
<polygon points = "792.273, 29.317 841.367, 18.827 844.111, 91.568 842.025, 94.509 "
fill = "none" stroke = "black"/>
</g>
<g>
<polygon points = "513.606, 925.430 545.129, 860.984 555.333, 856.413 605.616, 895.628 580.098, 939.131 535.027, 961.583 "
fill = "none" stroke = "black"/>
</g>
<g>
<polygon points = "204.942, 380.036 213.489, 429.092 174.388, 477.553 106.963, 459.421 105.298, 411.229 186.587, 373.246 "
fill = "none" stroke = "black"/>
</g>
<g>
<polygon points = "78.928, 648.722 1.520, 609.761 69.645, 540.016 152.665, 569.526 145.081, 614.070 133.950, 632.672 91.363, 647.117 "
fill = "none" stroke = "black"/>
</g>
<g>
<polygon points = "738.386, 44.651 684.267, 91.764 630.683, 73.477 584.413, 3.505 "
fill = "none" stroke = "black"/>
</g>
<g>
<polygon points = "84.128, 681.688 78.928, 648.722 91.363, 647.117 162.695, 721.036 163.969, 732.228 143.266, 745.441 "
fill = "none" stroke = "black"/>
</g>
<g>
<polygon points = "518.082, 35.733 518.177, 36.464 523.848, 142.629 492.419, 139.032 467.867, 92.721 "
fill = "none" stroke = "black"/>
</g>
<g>
<polygon points = "550.441, 259.501 509.114, 221.170 535.691, 161.344 565.185, 157.615 598.873, 221.115 "
fill = "none" stroke = "black"/>
</g>
<g>
<polygon points = "327.612, 291.781 316.703, 289.534 399.079, 236.760 456.495, 248.299 449.600, 273.132 "
fill = "none" stroke = "black"/>
</g>
<g>
<polygon points = "584.413, 3.505 630.683, 73.477 595.077, 142.688 518.177, 36.464 518.082, 35.733 523.621, 0.000 581.993, 0.000 "
fill = "none" stroke = "black"/>
</g>
<g>
<polygon points = "160.840, 269.948 243.553, 253.342 293.911, 270.997 302.172, 289.893 292.161, 327.823 204.942, 380.036 186.587, 373.246 151.797, 316.499 "
fill = "none" stroke = "black"/>
</g>
<g>
<polygon points = "434.309, 645.871 402.073, 611.529 394.500, 573.973 443.743, 574.348 446.544, 641.393 "
fill = "none" stroke = "black"/>
</g>
<g>
<polygon points = "762.955, 301.020 758.830, 359.540 732.053, 369.029 714.231, 321.709 "
fill = "none" stroke = "black"/>
</g>
<g>
<polygon points = "684.267, 91.764 738.386, 44.651 739.748, 43.539 787.208, 97.742 736.060, 159.279 727.469, 158.531 702.554, 152.397 "
fill = "none" stroke = "black"/>
</g>
<g>
<polygon points = "218.113, 628.608 181.897, 645.812 149.830, 648.615 133.950, 632.672 145.081, 614.070 "
fill = "none" stroke = "black"/>
</g>
<g>
<polygon points = "744.579, 23.354 739.748, 43.539 738.386, 44.651 584.413, 3.505 581.993, 0.000 740.695, 0.000 "
fill = "none" stroke = "black"/>
</g>
<g>
<polygon points = "960.945, 1000.000 856.791, 867.516 873.961, 797.809 925.911, 763.058 1000.000, 805.201 1000.000, 1000.000 "
fill = "none" stroke = "black"/>
</g>
<g>
<polygon points = "960.945, 1000.000 838.178, 1000.000 768.898, 901.375 799.566, 876.362 856.791, 867.516 "
fill = "none" stroke = "black"/>
</g>
<g>
<polygon points = "76.013, 503.621 75.983, 499.817 106.963, 459.421 174.388, 477.553 177.131, 495.841 167.550, 516.868 "
fill = "none" stroke = "black"/>
</g>
<g>
<polygon points = "299.863, 248.947 313.443, 217.447 387.263, 203.818 399.079, 236.760 316.703, 289.534 302.172, 289.893 293.911, 270.997 "
fill = "none" stroke = "black"/>
</g>
<g>
<polygon points = "626.618, 503.160 674.252, 535.331 678.563, 545.032 668.173, 568.422 612.857, 585.188 591.014, 532.448 594.370, 526.905 "
fill = "none" stroke = "black"/>
</g>
<g>
<polygon points = "161.903, 852.420 177.494, 914.594 156.424, 941.913 91.689, 933.748 80.108, 908.074 117.097, 836.104 118.490, 835.177 "
fill = "none" stroke = "black"/>
</g>
<g>
<polygon points = "243.553, 253.342 160.840, 269.948 160.009, 268.866 156.636, 244.750 162.288, 228.361 190.833, 184.993 205.055, 188.704 "
fill = "none" stroke = "black"/>
</g>
<g>
<polygon points = "57.168, 211.788 36.402, 211.119 39.667, 148.720 52.948, 131.947 91.838, 134.572 111.656, 167.228 107.810, 173.705 "
fill = "none" stroke = "black"/>
</g>
<g>
<polygon points = "228.948, 742.777 163.969, 732.228 162.695, 721.036 167.321, 681.157 191.028, 669.771 251.869, 653.927 269.474, 670.630 266.859, 689.169 239.271, 740.409 "
fill = "none" stroke = "black"/>
</g>
<g>
<polygon points = "298.649, 848.939 293.973, 841.463 292.808, 838.828 280.790, 796.265 345.012, 741.253 389.245, 741.526 396.295, 750.290 401.576, 771.797 330.146, 852.490 "
fill = "none" stroke = "black"/>
</g>
<g>
<polygon points = "351.771, 581.048 359.033, 564.126 394.500, 573.973 402.073, 611.529 399.690, 659.651 387.956, 668.605 "
fill = "none" stroke = "black"/>
</g>
<g>
<polygon points = "976.404, 509.310 911.501, 507.323 905.104, 500.557 883.002, 427.128 1000.000, 402.983 1000.000, 500.122 "
fill = "none" stroke = "black"/>
</g>
<g>
<polygon points = "600.024, 596.708 572.014, 640.241 563.992, 639.920 534.251, 631.965 512.503, 600.564 525.439, 584.715 "
fill = "none" stroke = "black"/>
</g>
<g>
<polygon points = "991.252, 187.536 907.576, 195.909 899.786, 143.378 899.799, 141.886 985.012, 109.096 1000.000, 109.392 1000.000, 183.891 "
fill = "none" stroke = "black"/>
</g>
<g>
<polygon points = "95.836, 55.191 30.264, 97.672 14.914, 95.890 56.780, 0.000 111.884, 0.000 "
fill = "none" stroke = "black"/>
</g>
<g>
<polygon points = "134.673, 756.605 188.936, 817.186 181.396, 836.745 161.903, 852.420 118.490, 835.177 116.869, 770.244 "
fill = "none" stroke = "black"/>
</g>
<g>
<polygon points = "678.346, 856.375 694.252, 844.439 714.804, 854.118 756.627, 904.467 736.538, 926.480 671.403, 933.793 651.425, 886.674 "
fill = "none" stroke = "black"/>
</g>
<g>
<polygon points = "89.490, 253.950 57.168, 211.788 107.810, 173.705 126.367, 213.765 96.295, 254.114 "
fill = "none" stroke = "black"/>
</g>
<g>
<polygon points = "292.161, 327.823 302.172, 289.893 316.703, 289.534 327.612, 291.781 371.523, 313.905 404.579, 359.733 368.399, 436.508 353.470, 425.795 "
fill = "none" stroke = "black"/>
</g>
<g>
<polygon points = "925.911, 763.058 925.472, 755.333 940.103, 668.081 1000.000, 659.884 1000.000, 805.201 "
fill = "none" stroke = "black"/>
</g>
<g>
<polygon points = "318.452, 159.330 356.747, 127.039 371.359, 131.255 390.982, 199.074 387.263, 203.818 313.443, 217.447 "
fill = "none" stroke = "black"/>
</g>
<g>
<polygon points = "347.150, 537.980 257.325, 544.047 252.625, 543.565 246.527, 526.383 251.499, 492.797 268.754, 484.004 354.413, 501.956 "
fill = "none" stroke = "black"/>
</g>
<g>
<polygon points = "449.055, 571.285 443.743, 574.348 394.500, 573.973 359.033, 564.126 347.150, 537.980 354.413, 501.956 375.890, 446.262 405.827, 447.841 458.094, 472.291 469.627, 483.765 482.040, 505.424 "
fill = "none" stroke = "black"/>
</g>
<g>
<polygon points = "404.579, 359.733 421.519, 348.160 452.917, 386.941 405.827, 447.841 375.890, 446.262 368.399, 436.508 "
fill = "none" stroke = "black"/>
</g>
<g>
<polygon points = "251.869, 653.927 191.028, 669.771 181.897, 645.812 218.113, 628.608 235.088, 627.921 245.189, 642.801 "
fill = "none" stroke = "black"/>
</g>
<g>
<polygon points = "925.911, 763.058 873.961, 797.809 831.708, 776.452 822.674, 747.268 825.682, 694.783 925.472, 755.333 "
fill = "none" stroke = "black"/>
</g>
<g>
<polygon points = "985.012, 109.096 897.567, 66.048 898.522, 0.000 1000.000, 0.000 1000.000, 109.392 "
fill = "none" stroke = "black"/>
</g>
<g>
<polygon points = "674.065, 429.007 646.799, 438.955 578.017, 419.280 579.866, 379.375 652.495, 355.473 662.475, 362.661 689.073, 417.829 "
fill = "none" stroke = "black"/>
</g>
<g>
<polygon points = "396.295, 750.290 489.521, 698.150 500.352, 706.909 533.050, 743.960 482.934, 800.573 459.077, 807.877 401.576, 771.797 "
fill = "none" stroke = "black"/>
</g>
<g>
<polygon points = "327.585, 942.373 286.591, 944.781 262.126, 919.372 257.891, 904.399 263.903, 893.723 298.649, 848.939 330.146, 852.490 339.236, 861.416 "
fill = "none" stroke = "black"/>
</g>
<g>
<polygon points = "36.402, 211.119 57.168, 211.788 89.490, 253.950 65.247, 325.097 20.968, 354.390 0.000, 354.724 0.000, 223.203 "
fill = "none" stroke = "black"/>
</g>
<g>
<polygon points = "319.698, 617.935 296.795, 656.946 269.474, 670.630 251.869, 653.927 245.189, 642.801 283.038, 588.497 "
fill = "none" stroke = "black"/>
</g>
<g>
<polygon points = "898.298, 268.965 897.264, 268.237 903.079, 201.155 907.576, 195.909 991.252, 187.536 "
fill = "none" stroke = "black"/>
</g>
<g>
<polygon points = "230.588, 119.550 189.049, 106.437 170.899, 0.000 292.993, 0.000 "
fill = "none" stroke = "black"/>
</g>
<g>
<polygon points = "579.866, 379.375 569.119, 355.952 640.681, 320.334 652.495, 355.473 "
fill = "none" stroke = "black"/>
</g>
<g>
<polygon points = "685.426, 495.449 746.265, 517.997 678.563, 545.032 674.252, 535.331 676.979, 503.359 "
fill = "none" stroke = "black"/>
</g>
<g>
<polygon points = "458.094, 472.291 503.679, 405.072 558.053, 422.259 469.627, 483.765 "
fill = "none" stroke = "black"/>
</g>
<g>
<polygon points = "705.461, 740.415 690.857, 744.212 656.638, 702.271 690.988, 629.906 711.818, 623.087 719.434, 656.799 "
fill = "none" stroke = "black"/>
</g>
<g>
<polygon points = "454.774, 310.270 449.600, 273.132 456.495, 248.299 472.814, 227.794 509.114, 221.170 550.441, 259.501 560.313, 286.704 546.404, 324.805 494.376, 341.663 "
fill = "none" stroke = "black"/>
</g>
<g>
<polygon points = "899.786, 143.378 907.576, 195.909 903.079, 201.155 869.143, 191.575 "
fill = "none" stroke = "black"/>
</g>
<g>
<polygon points = "630.683, 73.477 684.267, 91.764 702.554, 152.397 660.398, 194.069 594.445, 144.472 595.077, 142.688 "
fill = "none" stroke = "black"/>
</g>
<g>
<polygon points = "235.088, 627.921 218.113, 628.608 145.081, 614.070 152.665, 569.526 162.753, 563.200 227.063, 574.190 "
fill = "none" stroke = "black"/>
</g>
<g>
<polygon points = "899.786, 143.378 869.143, 191.575 818.722, 192.324 842.541, 122.838 899.799, 141.886 "
fill = "none" stroke = "black"/>
</g>
<g>
<polygon points = "835.975, 478.933 825.855, 414.641 825.856, 414.602 870.811, 414.335 883.002, 427.128 905.104, 500.557 "
fill = "none" stroke = "black"/>
</g>
<g>
<polygon points = "435.187, 684.989 427.225, 649.906 434.309, 645.871 446.544, 641.393 473.940, 659.104 484.935, 676.565 486.657, 690.012 "
fill = "none" stroke = "black"/>
</g>
<g>
<polygon points = "296.795, 656.946 319.698, 617.935 351.771, 581.048 387.956, 668.605 379.968, 685.065 "
fill = "none" stroke = "black"/>
</g>
<g>
<polygon points = "787.208, 97.742 836.554, 105.766 842.541, 122.838 818.722, 192.324 806.754, 207.532 802.694, 208.152 736.060, 159.279 "
fill = "none" stroke = "black"/>
</g>
<g>
<polygon points = "820.693, 311.838 829.893, 344.155 809.330, 379.905 795.831, 372.307 770.795, 297.264 "
fill = "none" stroke = "black"/>
</g>
<g>
<polygon points = "651.425, 886.674 671.403, 933.793 661.728, 950.219 580.098, 939.131 605.616, 895.628 640.160, 882.942 "
fill = "none" stroke = "black"/>
</g>
<g>
<polygon points = "404.579, 359.733 371.523, 313.905 437.622, 321.175 421.519, 348.160 "
fill = "none" stroke = "black"/>
</g>
<g>
<polygon points = "216.777, 431.629 294.177, 443.239 268.754, 484.004 251.499, 492.797 "
fill = "none" stroke = "black"/>
</g>
<g>
<polygon points = "820.693, 311.838 770.795, 297.264 767.669, 295.773 760.978, 256.460 802.694, 208.152 806.754, 207.532 859.100, 262.064 "
fill = "none" stroke = "black"/>
</g>
<g>
<polygon points = "600.746, 795.177 601.494, 789.435 684.788, 751.869 694.252, 844.439 678.346, 856.375 "
fill = "none" stroke = "black"/>
</g>
<g>
<polygon points = "371.359, 131.255 425.788, 130.600 432.732, 139.084 442.371, 188.939 390.982, 199.074 "
fill = "none" stroke = "black"/>
</g>
<g>
<polygon points = "84.128, 681.688 143.266, 745.441 134.673, 756.605 116.869, 770.244 81.801, 763.053 58.359, 755.011 "
fill = "none" stroke = "black"/>
</g>
<g>
<polygon points = "152.665, 569.526 69.645, 540.016 76.013, 503.621 167.550, 516.868 162.753, 563.200 "
fill = "none" stroke = "black"/>
</g>
<g>
<polygon points = "347.150, 537.980 359.033, 564.126 351.771, 581.048 319.698, 617.935 283.038, 588.497 257.325, 544.047 "
fill = "none" stroke = "black"/>
</g>
<g>
<polygon points = "292.808, 838.828 196.067, 810.618 228.948, 742.777 239.271, 740.409 280.790, 796.265 "
fill = "none" stroke = "black"/>
</g>
<g>
<polygon points = "705.461, 740.415 709.664, 740.947 765.239, 787.554 766.226, 809.747 714.804, 854.118 694.252, 844.439 684.788, 751.869 690.857, 744.212 "
fill = "none" stroke = "black"/>
</g>
<g>
<polygon points = "421.210, 56.756 340.391, 40.169 311.357, 0.000 519.313, 0.000 "
fill = "none" stroke = "black"/>
</g>
<g>
<polygon points = "189.049, 106.437 168.045, 130.954 99.437, 78.978 95.836, 55.191 111.884, 0.000 170.899, 0.000 "
fill = "none" stroke = "black"/>
</g>
<g>
<polygon points = "299.863, 248.947 293.911, 270.997 243.553, 253.342 205.055, 188.704 236.283, 160.063 "
fill = "none" stroke = "black"/>
</g>
<g>
<polygon points = "646.799, 438.955 674.065, 429.007 685.426, 495.449 676.979, 503.359 632.206, 494.801 "
fill = "none" stroke = "black"/>
</g>
<g>
<polygon points = "939.774, 326.462 898.298, 268.965 991.252, 187.536 1000.000, 183.891 1000.000, 342.729 "
fill = "none" stroke = "black"/>
</g>
<g>
<polygon points = "162.288, 228.361 130.531, 163.492 158.298, 153.880 190.833, 184.993 "
fill = "none" stroke = "black"/>
</g>
<g>
<polygon points = "612.857, 585.188 668.173, 568.422 718.433, 605.340 717.320, 611.132 711.818, 623.087 690.988, 629.906 644.354, 629.528 612.711, 585.684 "
fill = "none" stroke = "black"/>
</g>
<g>
<polygon points = "253.029, 941.540 259.091, 1000.000 203.880, 1000.000 "
fill = "none" stroke = "black"/>
</g>
<g>
<polygon points = "905.104, 500.557 911.501, 507.323 882.001, 539.939 792.584, 509.198 835.975, 478.933 "
fill = "none" stroke = "black"/>
</g>
<g>
<polygon points = "292.161, 327.823 353.470, 425.795 294.177, 443.239 216.777, 431.629 213.489, 429.092 204.942, 380.036 "
fill = "none" stroke = "black"/>
</g>
<g>
<polygon points = "759.097, 506.412 782.708, 416.968 812.654, 403.450 825.856, 414.602 825.855, 414.641 762.946, 516.842 762.612, 516.582 "
fill = "none" stroke = "black"/>
</g>
<g>
<polygon points = "253.029, 941.540 262.126, 919.372 286.591, 944.781 304.363, 1000.000 259.091, 1000.000 "
fill = "none" stroke = "black"/>
</g>
<g>
<polygon points = "646.799, 438.955 632.206, 494.801 626.618, 503.160 594.370, 526.905 574.428, 429.636 575.818, 421.086 578.017, 419.280 "
fill = "none" stroke = "black"/>
</g>
<g>
<polygon points = "759.097, 506.412 762.612, 516.582 746.265, 517.997 685.426, 495.449 674.065, 429.007 689.073, 417.829 697.449, 417.904 "
fill = "none" stroke = "black"/>
</g>
<g>
<polygon points = "277.776, 137.816 318.452, 159.330 313.443, 217.447 299.863, 248.947 236.283, 160.063 246.975, 137.443 "
fill = "none" stroke = "black"/>
</g>
<g>
<polygon points = "600.746, 795.177 678.346, 856.375 651.425, 886.674 640.160, 882.942 596.691, 811.380 "
fill = "none" stroke = "black"/>
</g>
<g>
<polygon points = "292.808, 838.828 293.973, 841.463 185.333, 837.971 181.396, 836.745 188.936, 817.186 196.067, 810.618 "
fill = "none" stroke = "black"/>
</g>
<g>
<polygon points = "14.914, 95.890 30.264, 97.672 52.948, 131.947 39.667, 148.720 0.000, 136.125 0.000, 96.233 "
fill = "none" stroke = "black"/>
</g>
<g>
<polygon points = "911.501, 507.323 976.404, 509.310 927.451, 652.932 863.707, 627.475 867.729, 569.128 882.001, 539.939 "
fill = "none" stroke = "black"/>
</g>
<g>
<polygon points = "286.591, 944.781 327.585, 942.373 348.085, 958.183 338.768, 1000.000 304.363, 1000.000 "
fill = "none" stroke = "black"/>
</g>
<g>
<polygon points = "898.298, 268.965 939.774, 326.462 909.197, 345.109 829.893, 344.155 820.693, 311.838 859.100, 262.064 897.264, 268.237 "
fill = "none" stroke = "black"/>
</g>
<g>
<polygon points = "509.114, 221.170 472.814, 227.794 442.371, 188.939 432.732, 139.084 492.419, 139.032 523.848, 142.629 535.691, 161.344 "
fill = "none" stroke = "black"/>
</g>
<g>
<polygon points = "533.050, 743.960 500.352, 706.909 563.992, 639.920 572.014, 640.241 587.441, 683.373 541.203, 744.138 "
fill = "none" stroke = "black"/>
</g>
<g>
<polygon points = "518.082, 35.733 467.867, 92.721 426.681, 128.390 421.210, 56.756 519.313, 0.000 523.621, 0.000 "
fill = "none" stroke = "black"/>
</g>
<g>
<polygon points = "760.978, 256.460 767.669, 295.773 762.955, 301.020 714.231, 321.709 708.007, 319.573 668.505, 261.602 670.776, 255.402 725.242, 251.314 "
fill = "none" stroke = "black"/>
</g>
<g>
<polygon points = "174.388, 477.553 213.489, 429.092 216.777, 431.629 251.499, 492.797 246.527, 526.383 177.131, 495.841 "
fill = "none" stroke = "black"/>
</g>
<g>
<polygon points = "49.656, 891.326 80.108, 908.074 91.689, 933.748 84.276, 943.787 21.948, 1000.000 0.000, 1000.000 0.000, 896.628 "
fill = "none" stroke = "black"/>
</g>
<g>
<polygon points = "327.585, 942.373 339.236, 861.416 408.610, 909.283 348.085, 958.183 "
fill = "none" stroke = "black"/>
</g>
<g>
<polygon points = "371.523, 313.905 327.612, 291.781 449.600, 273.132 454.774, 310.270 437.622, 321.175 "
fill = "none" stroke = "black"/>
</g>
<g>
<polygon points = "569.119, 355.952 546.404, 324.805 560.313, 286.704 639.068, 288.001 640.681, 320.334 "
fill = "none" stroke = "black"/>
</g>
<g>
<polygon points = "513.606, 925.430 535.027, 961.583 535.056, 1000.000 472.102, 1000.000 414.066, 930.568 413.256, 910.373 440.855, 899.001 "
fill = "none" stroke = "black"/>
</g>
<g>
<polygon points = "612.857, 585.188 612.711, 585.684 600.024, 596.708 525.439, 584.715 531.828, 523.951 591.014, 532.448 "
fill = "none" stroke = "black"/>
</g>
<g>
<polygon points = "89.490, 253.950 96.295, 254.114 160.009, 268.866 160.840, 269.948 151.797, 316.499 65.247, 325.097 "
fill = "none" stroke = "black"/>
</g>
<g>
<circle cx = "404.596" cy = "838.778" r="5"/></g>
<g>
<circle cx = "27.256" cy = "796.047" r="5"/></g>
<g>
<circle cx = "612.514" cy = "967.170" r="5"/></g>
<g>
<circle cx = "831.768" cy = "537.393" r="5"/></g>
<g>
<circle cx = "599.419" cy = "867.929" r="5"/></g>
<g>
<circle cx = "819.824" cy = "571.470" r="5"/></g>
<g>
<circle cx = "206.983" cy = "150.345" r="5"/></g>
<g>
<circle cx = "127.066" cy = "116.366" r="5"/></g>
<g>
<circle cx = "58.716" cy = "441.426" r="5"/></g>
<g>
<circle cx = "799.566" cy = "726.664" r="5"/></g>
<g>
<circle cx = "600.150" cy = "192.666" r="5"/></g>
<g>
<circle cx = "702.406" cy = "352.021" r="5"/></g>
<g>
<circle cx = "503.433" cy = "632.937" r="5"/></g>
<g>
<circle cx = "779.380" cy = "960.663" r="5"/></g>
<g>
<circle cx = "717.678" cy = "212.801" r="5"/></g>
<g>
<circle cx = "263.335" cy = "98.737" r="5"/></g>
<g>
<circle cx = "607.486" cy = "723.791" r="5"/></g>
<g>
<circle cx = "562.208" cy = "108.196" r="5"/></g>
<g>
<circle cx = "866.721" cy = "698.561" r="5"/></g>
<g>
<circle cx = "750.038" cy = "844.198" r="5"/></g>
<g>
<circle cx = "15.143" cy = "502.301" r="5"/></g>
<g>
<circle cx = "912.330" cy = "403.775" r="5"/></g>
<g>
<circle cx = "399.934" cy = "84.704" r="5"/></g>
<g>
<circle cx = "531.891" cy = "461.726" r="5"/></g>
<g>
<circle cx = "897.656" cy = "102.943" r="5"/></g>
<g>
<circle cx = "803.507" cy = "817.438" r="5"/></g>
<g>
<circle cx = "25.024" cy = "59.794" r="5"/></g>
<g>
<circle cx = "807.314" cy = "5.629" r="5"/></g>
<g>
<circle cx = "474.620" cy = "407.742" r="5"/></g>
<g>
<circle cx = "428.439" cy = "676.470" r="5"/></g>
<g>
<circle cx = "115.809" cy = "356.720" r="5"/></g>
<g>
<circle cx = "708.305" cy = "973.457" r="5"/></g>
<g>
<circle cx = "502.958" cy = "568.329" r="5"/></g>
<g>
<circle cx = "411.458" cy = "628.493" r="5"/></g>
<g>
<circle cx = "76.159" cy = "807.399" r="5"/></g>
<g>
<circle cx = "529.932" cy = "382.671" r="5"/></g>
<g>
<circle cx = "563.969" cy = "481.883" r="5"/></g>
<g>
<circle cx = "199.402" cy = "529.848" r="5"/></g>
<g>
<circle cx = "137.616" cy = "679.073" r="5"/></g>
<g>
<circle cx = "748.895" cy = "644.589" r="5"/></g>
<g>
<circle cx = "801.019" cy = "55.979" r="5"/></g>
<g>
<circle cx = "71.173" cy = "855.874" r="5"/></g>
<g>
<circle cx = "94.039" cy = "998.115" r="5"/></g>
<g>
<circle cx = "65.096" cy = "804.518" r="5"/></g>
<g>
<circle cx = "734.646" cy = "213.208" r="5"/></g>
<g>
<circle cx = "662.392" cy = "512.188" r="5"/></g>
<g>
<circle cx = "526.531" cy = "386.925" r="5"/></g>
<g>
<circle cx = "408.634" cy = "215.577" r="5"/></g>
<g>
<circle cx = "671.032" cy = "650.582" r="5"/></g>
<g>
<circle cx = "707.762" cy = "559.363" r="5"/></g>
<g>
<circle cx = "777.597" cy = "339.120" r="5"/></g>
<g>
<circle cx = "275.635" cy = "593.479" r="5"/></g>
<g>
<circle cx = "19.110" cy = "155.305" r="5"/></g>
<g>
<circle cx = "616.273" cy = "648.673" r="5"/></g>
<g>
<circle cx = "530.197" cy = "662.531" r="5"/></g>
<g>
<circle cx = "62.789" cy = "107.581" r="5"/></g>
<g>
<circle cx = "540.114" cy = "813.465" r="5"/></g>
<g>
<circle cx = "875.341" cy = "211.190" r="5"/></g>
<g>
<circle cx = "791.717" cy = "746.856" r="5"/></g>
<g>
<circle cx = "308.182" cy = "745.942" r="5"/></g>
<g>
<circle cx = "181.971" cy = "655.232" r="5"/></g>
<g>
<circle cx = "145.280" cy = "208.384" r="5"/></g>
<g>
<circle cx = "983.173" cy = "601.306" r="5"/></g>
<g>
<circle cx = "207.362" cy = "864.990" r="5"/></g>
<g>
<circle cx = "760.819" cy = "626.105" r="5"/></g>
<g>
<circle cx = "290.069" cy = "476.576" r="5"/></g>
<g>
<circle cx = "52.364" cy = "705.408" r="5"/></g>
<g>
<circle cx = "435.503" cy = "695.853" r="5"/></g>
<g>
<circle cx = "373.664" cy = "970.650" r="5"/></g>
<g>
<circle cx = "426.460" cy = "992.326" r="5"/></g>
<g>
<circle cx = "807.502" cy = "463.287" r="5"/></g>
<g>
<circle cx = "23.811" cy = "858.893" r="5"/></g>
<g>
<circle cx = "120.545" cy = "232.547" r="5"/></g>
<g>
<circle cx = "218.110" cy = "849.842" r="5"/></g>
<g>
<circle cx = "857.776" cy = "373.524" r="5"/></g>
<g>
<circle cx = "758.012" cy = "444.313" r="5"/></g>
<g>
<circle cx = "868.935" cy = "42.780" r="5"/></g>
<g>
<circle cx = "476.267" cy = "115.538" r="5"/></g>
<g>
<circle cx = "301.120" cy = "103.309" r="5"/></g>
<g>
<circle cx = "180.386" cy = "786.509" r="5"/></g>
<g>
<circle cx = "218.798" cy = "955.173" r="5"/></g>
<g>
<circle cx = "749.019" cy = "668.706" r="5"/></g>
<g>
<circle cx = "497.485" cy = "857.353" r="5"/></g>
<g>
<circle cx = "607.831" cy = "248.146" r="5"/></g>
<g>
<circle cx = "761.010" cy = "387.188" r="5"/></g>
<g>
<circle cx = "8.032" cy = "760.606" r="5"/></g>
<g>
<circle cx = "335.163" cy = "705.456" r="5"/></g>
<g>
<circle cx = "675.300" cy = "323.377" r="5"/></g>
<g>
<circle cx = "472.960" cy = "619.688" r="5"/></g>
<g>
<circle cx = "442.488" cy = "979.874" r="5"/></g>
<g>
<circle cx = "442.818" cy = "358.626" r="5"/></g>
<g>
<circle cx = "114.508" cy = "989.970" r="5"/></g>
<g>
<circle cx = "815.682" cy = "44.789" r="5"/></g>
<g>
<circle cx = "577.242" cy = "896.366" r="5"/></g>
<g>
<circle cx = "153.853" cy = "438.140" r="5"/></g>
<g>
<circle cx = "108.631" cy = "593.617" r="5"/></g>
<g>
<circle cx = "678.476" cy = "30.662" r="5"/></g>
<g>
<circle cx = "121.651" cy = "694.478" r="5"/></g>
<g>
<circle cx = "482.039" cy = "112.478" r="5"/></g>
<g>
<circle cx = "574.602" cy = "206.220" r="5"/></g>
<g>
<circle cx = "399.708" cy = "259.989" r="5"/></g>
<g>
<circle cx = "572.574" cy = "100.692" r="5"/></g>
<g>
<circle cx = "203.967" cy = "302.672" r="5"/></g>
<g>
<circle cx = "418.410" cy = "621.968" r="5"/></g>
<g>
<circle cx = "743.114" cy = "336.689" r="5"/></g>
<g>
<circle cx = "743.988" cy = "105.916" r="5"/></g>
<g>
<circle cx = "180.336" cy = "636.523" r="5"/></g>
<g>
<circle cx = "679.484" cy = "26.890" r="5"/></g>
<g>
<circle cx = "927.239" cy = "847.915" r="5"/></g>
<g>
<circle cx = "821.115" cy = "931.346" r="5"/></g>
<g>
<circle cx = "136.854" cy = "501.350" r="5"/></g>
<g>
<circle cx = "378.239" cy = "226.479" r="5"/></g>
<g>
<circle cx = "648.354" cy = "532.974" r="5"/></g>
<g>
<circle cx = "127.754" cy = "884.953" r="5"/></g>
<g>
<circle cx = "187.994" cy = "223.114" r="5"/></g>
<g>
<circle cx = "59.425" cy = "157.414" r="5"/></g>
<g>
<circle cx = "196.714" cy = "685.928" r="5"/></g>
<g>
<circle cx = "334.722" cy = "776.926" r="5"/></g>
<g>
<circle cx = "391.058" cy = "627.483" r="5"/></g>
<g>
<circle cx = "919.179" cy = "436.962" r="5"/></g>
<g>
<circle cx = "545.997" cy = "603.457" r="5"/></g>
<g>
<circle cx = "924.314" cy = "172.220" r="5"/></g>
<g>
<circle cx = "34.515" cy = "63.937" r="5"/></g>
<g>
<circle cx = "159.382" cy = "805.323" r="5"/></g>
<g>
<circle cx = "698.590" cy = "886.933" r="5"/></g>
<g>
<circle cx = "110.031" cy = "224.711" r="5"/></g>
<g>
<circle cx = "381.279" cy = "349.473" r="5"/></g>
<g>
<circle cx = "999.528" cy = "720.831" r="5"/></g>
<g>
<circle cx = "370.743" cy = "185.873" r="5"/></g>
<g>
<circle cx = "285.293" cy = "499.365" r="5"/></g>
<g>
<circle cx = "419.138" cy = "526.348" r="5"/></g>
<g>
<circle cx = "427.324" cy = "371.171" r="5"/></g>
<g>
<circle cx = "188.111" cy = "652.892" r="5"/></g>
<g>
<circle cx = "847.985" cy = "729.439" r="5"/></g>
<g>
<circle cx = "926.861" cy = "43.618" r="5"/></g>
<g>
<circle cx = "629.281" cy = "387.276" r="5"/></g>
<g>
<circle cx = "463.202" cy = "745.379" r="5"/></g>
<g>
<circle cx = "317.786" cy = "927.176" r="5"/></g>
<g>
<circle cx = "55.921" cy = "266.194" r="5"/></g>
<g>
<circle cx = "280.927" cy = "597.167" r="5"/></g>
<g>
<circle cx = "928.676" cy = "215.812" r="5"/></g>
<g>
<circle cx = "228.942" cy = "80.784" r="5"/></g>
<g>
<circle cx = "614.931" cy = "343.673" r="5"/></g>
<g>
<circle cx = "689.859" cy = "514.530" r="5"/></g>
<g>
<circle cx = "511.950" cy = "433.057" r="5"/></g>
<g>
<circle cx = "687.585" cy = "658.440" r="5"/></g>
<g>
<circle cx = "499.126" cy = "287.595" r="5"/></g>
<g>
<circle cx = "884.683" cy = "178.096" r="5"/></g>
<g>
<circle cx = "642.329" cy = "136.577" r="5"/></g>
<g>
<circle cx = "186.247" cy = "606.830" r="5"/></g>
<g>
<circle cx = "874.755" cy = "171.784" r="5"/></g>
<g>
<circle cx = "858.264" cy = "455.297" r="5"/></g>
<g>
<circle cx = "437.597" cy = "674.391" r="5"/></g>
<g>
<circle cx = "356.728" cy = "641.670" r="5"/></g>
<g>
<circle cx = "787.074" cy = "141.728" r="5"/></g>
<g>
<circle cx = "790.486" cy = "334.819" r="5"/></g>
<g>
<circle cx = "618.819" cy = "920.754" r="5"/></g>
<g>
<circle cx = "402.195" cy = "334.386" r="5"/></g>
<g>
<circle cx = "266.047" cy = "461.595" r="5"/></g>
<g>
<circle cx = "807.604" cy = "276.210" r="5"/></g>
<g>
<circle cx = "654.664" cy = "828.396" r="5"/></g>
<g>
<circle cx = "401.045" cy = "177.105" r="5"/></g>
<g>
<circle cx = "94.068" cy = "720.064" r="5"/></g>
<g>
<circle cx = "133.715" cy = "523.047" r="5"/></g>
<g>
<circle cx = "291.048" cy = "584.563" r="5"/></g>
<g>
<circle cx = "224.707" cy = "807.990" r="5"/></g>
<g>
<circle cx = "729.775" cy = "820.717" r="5"/></g>
<g>
<circle cx = "412.662" cy = "22.688" r="5"/></g>
<g>
<circle cx = "142.908" cy = "95.454" r="5"/></g>
<g>
<circle cx = "243.437" cy = "190.092" r="5"/></g>
<g>
<circle cx = "666.677" cy = "489.774" r="5"/></g>
<g>
<circle cx = "954.986" cy = "245.846" r="5"/></g>
<g>
<circle cx = "156.941" cy = "202.675" r="5"/></g>
<g>
<circle cx = "671.370" cy = "608.909" r="5"/></g>
<g>
<circle cx = "245.478" cy = "977.605" r="5"/></g>
<g>
<circle cx = "840.821" cy = "511.057" r="5"/></g>
<g>
<circle cx = "272.671" cy = "417.438" r="5"/></g>
<g>
<circle cx = "790.690" cy = "452.939" r="5"/></g>
<g>
<circle cx = "267.820" cy = "975.288" r="5"/></g>
<g>
<circle cx = "604.601" cy = "473.553" r="5"/></g>
<g>
<circle cx = "701.224" cy = "483.866" r="5"/></g>
<g>
<circle cx = "262.391" cy = "176.534" r="5"/></g>
<g>
<circle cx = "645.617" cy = "839.867" r="5"/></g>
<g>
<circle cx = "218.805" cy = "828.229" r="5"/></g>
<g>
<circle cx = "26.674" cy = "131.483" r="5"/></g>
<g>
<circle cx = "914.859" cy = "578.021" r="5"/></g>
<g>
<circle cx = "319.633" cy = "958.612" r="5"/></g>
<g>
<circle cx = "858.475" cy = "315.465" r="5"/></g>
<g>
<circle cx = "476.308" cy = "162.554" r="5"/></g>
<g>
<circle cx = "543.142" cy = "674.830" r="5"/></g>
<g>
<circle cx = "446.483" cy = "81.148" r="5"/></g>
<g>
<circle cx = "723.512" cy = "290.524" r="5"/></g>
<g>
<circle cx = "217.251" cy = "489.293" r="5"/></g>
<g>
<circle cx = "31.241" cy = "928.485" r="5"/></g>
<g>
<circle cx = "341.271" cy = "930.556" r="5"/></g>
<g>
<circle cx = "405.913" cy = "300.580" r="5"/></g>
<g>
<circle cx = "606.536" cy = "326.806" r="5"/></g>
<g>
<circle cx = "457.549" cy = "967.286" r="5"/></g>
<g>
<circle cx = "550.836" cy = "573.362" r="5"/></g>
<g>
<circle cx = "108.599" cy = "284.144" r="5"/></g>
</svg>
