<svg xmlns = "http://www.w3.org/2000/svg" width = "1000" height = "1000">
<g>
<polygon points = "936.900, 217.625 898.166, 192.326 894.860, 151.285 1000.000, 119.988 1000.000, 174.220 "
fill = "none" stroke = "black"/>
</g>
<g>
<polygon points = "170.878, 469.520 199.877, 539.844 178.241, 560.352 159.215, 571.566 93.744, 488.454 164.809, 469.977 "
fill = "none" stroke = "black"/>
</g>
<g>
<polygon points = "34.112, 487.513 45.627, 514.143 49.527, 590.942 0.000, 565.675 0.000, 483.878 "
fill = "none" stroke = "black"/>
</g>
<g>
<polygon points = "864.765, 922.606 928.147, 907.041 934.256, 943.333 914.753, 977.800 870.120, 961.445 "
fill = "none" stroke = "black"/>
</g>
<g>
<polygon points = "666.707, 669.382 692.991, 648.790 751.271, 654.174 760.932, 671.635 755.104, 728.080 723.423, 735.862 "
fill = "none" stroke = "black"/>
</g>
<g>
<polygon points = "286.192, 862.245 290.215, 849.371 326.172, 830.518 400.885, 920.152 "
fill = "none" stroke = "black"/>
</g>
<g>
<polygon points = "678.681, 24.232 632.182, 10.588 632.038, 10.373 632.280, 0.000 727.832, 0.000 "
fill = "none" stroke = "black"/>
</g>
<g>
<polygon points = "421.668, 956.960 418.954, 948.118 419.466, 940.506 426.755, 921.479 490.780, 822.456 531.516, 826.608 533.370, 827.614 544.689, 903.872 "
fill = "none" stroke = "black"/>
</g>
<g>
<polygon points = "353.233, 789.313 375.834, 801.961 426.755, 921.479 419.466, 940.506 400.885, 920.152 326.172, 830.518 "
fill = "none" stroke = "black"/>
</g>
<g>
<polygon points = "644.121, 86.536 632.182, 10.588 678.681, 24.232 656.564, 79.442 "
fill = "none" stroke = "black"/>
</g>
<g>
<polygon points = "505.269, 537.992 514.192, 568.388 461.357, 638.594 456.544, 640.187 476.333, 526.383 "
fill = "none" stroke = "black"/>
</g>
<g>
<polygon points = "333.296, 239.427 324.326, 264.205 297.233, 329.264 223.310, 322.530 215.987, 308.864 309.254, 211.861 "
fill = "none" stroke = "black"/>
</g>
<g>
<polygon points = "74.049, 202.856 73.647, 201.148 102.556, 168.043 181.128, 198.616 169.952, 259.373 167.392, 266.879 126.526, 274.216 "
fill = "none" stroke = "black"/>
</g>
<g>
<polygon points = "622.581, 203.232 650.453, 170.598 653.326, 170.063 705.007, 192.706 706.995, 205.367 699.910, 258.970 677.256, 265.773 621.705, 208.176 621.565, 207.421 "
fill = "none" stroke = "black"/>
</g>
<g>
<polygon points = "61.290, 532.275 78.608, 603.536 60.909, 608.518 49.527, 590.942 45.627, 514.143 "
fill = "none" stroke = "black"/>
</g>
<g>
<polygon points = "664.833, 281.864 562.118, 255.333 566.591, 246.596 621.705, 208.176 677.256, 265.773 "
fill = "none" stroke = "black"/>
</g>
<g>
<polygon points = "666.248, 807.300 614.343, 797.236 625.407, 767.077 689.533, 761.051 "
fill = "none" stroke = "black"/>
</g>
<g>
<polygon points = "541.220, 799.190 561.719, 721.104 574.746, 702.825 592.359, 693.594 611.031, 740.179 "
fill = "none" stroke = "black"/>
</g>
<g>
<polygon points = "835.636, 609.521 850.475, 682.237 809.962, 729.967 784.159, 733.844 755.104, 728.080 760.932, 671.635 "
fill = "none" stroke = "black"/>
</g>
<g>
<polygon points = "115.705, 340.663 198.695, 400.598 194.321, 403.939 100.811, 410.789 99.349, 407.727 "
fill = "none" stroke = "black"/>
</g>
<g>
<polygon points = "5.866, 263.587 109.075, 290.971 108.158, 293.112 53.026, 337.267 0.000, 325.486 0.000, 264.407 "
fill = "none" stroke = "black"/>
</g>
<g>
<polygon points = "106.978, 137.713 142.845, 96.754 191.196, 180.616 181.128, 198.616 102.556, 168.043 "
fill = "none" stroke = "black"/>
</g>
<g>
<polygon points = "57.284, 378.588 99.349, 407.727 100.811, 410.789 96.149, 423.387 68.517, 476.014 34.112, 487.513 0.000, 483.878 0.000, 440.398 "
fill = "none" stroke = "black"/>
</g>
<g>
<polygon points = "378.496, 141.047 416.570, 108.651 458.028, 114.377 431.376, 202.562 "
fill = "none" stroke = "black"/>
</g>
<g>
<polygon points = "409.979, 66.565 332.498, 48.416 329.488, 0.000 436.270, 0.000 "
fill = "none" stroke = "black"/>
</g>
<g>
<polygon points = "305.187, 198.908 309.254, 211.861 215.987, 308.864 167.392, 266.879 169.952, 259.373 "
fill = "none" stroke = "black"/>
</g>
<g>
<polygon points = "606.975, 600.243 657.177, 553.864 674.772, 542.733 723.986, 608.070 692.991, 648.790 666.707, 669.382 614.363, 653.510 601.946, 619.835 "
fill = "none" stroke = "black"/>
</g>
<g>
<polygon points = "628.705, 442.567 648.792, 423.402 708.936, 393.546 751.674, 400.840 757.099, 403.341 748.049, 472.058 689.359, 519.190 "
fill = "none" stroke = "black"/>
</g>
<g>
<polygon points = "30.706, 647.565 65.964, 703.488 43.707, 767.306 0.000, 769.689 0.000, 643.610 "
fill = "none" stroke = "black"/>
</g>
<g>
<polygon points = "49.527, 590.942 60.909, 608.518 30.706, 647.565 0.000, 643.610 0.000, 565.675 "
fill = "none" stroke = "black"/>
</g>
<g>
<polygon points = "929.415, 705.562 939.967, 724.167 851.993, 779.322 809.962, 729.967 850.475, 682.237 "
fill = "none" stroke = "black"/>
</g>
<g>
<polygon points = "562.419, 316.160 562.306, 309.657 657.964, 295.824 657.097, 322.845 630.244, 350.295 580.094, 368.164 "
fill = "none" stroke = "black"/>
</g>
<g>
<polygon points = "780.427, 106.291 794.276, 118.615 796.286, 161.659 792.931, 175.189 706.995, 205.367 705.007, 192.706 717.816, 141.452 "
fill = "none" stroke = "black"/>
</g>
<g>
<polygon points = "689.130, 843.689 719.075, 772.419 773.309, 860.580 747.617, 862.141 "
fill = "none" stroke = "black"/>
</g>
<g>
<polygon points = "149.743, 590.997 170.474, 677.702 159.167, 699.801 89.116, 695.749 124.256, 596.107 132.224, 592.104 148.513, 587.905 "
fill = "none" stroke = "black"/>
</g>
<g>
<polygon points = "327.334, 62.534 332.498, 48.416 409.979, 66.565 411.099, 69.037 416.570, 108.651 378.496, 141.047 352.233, 139.855 "
fill = "none" stroke = "black"/>
</g>
<g>
<polygon points = "956.012, 623.272 843.659, 578.295 888.314, 539.327 977.733, 565.930 1000.000, 596.650 1000.000, 600.450 "
fill = "none" stroke = "black"/>
</g>
<g>
<polygon points = "53.026, 337.267 56.355, 376.748 0.000, 376.898 0.000, 325.486 "
fill = "none" stroke = "black"/>
</g>
<g>
<polygon points = "438.672, 656.124 413.317, 669.969 411.956, 670.418 382.545, 667.430 397.727, 554.317 474.100, 523.184 476.333, 526.383 456.544, 640.187 "
fill = "none" stroke = "black"/>
</g>
<g>
<polygon points = "851.993, 779.322 860.616, 826.114 802.935, 876.731 790.798, 867.289 784.159, 733.844 809.962, 729.967 "
fill = "none" stroke = "black"/>
</g>
<g>
<polygon points = "708.345, 261.619 751.674, 400.840 708.936, 393.546 657.097, 322.845 657.964, 295.824 664.833, 281.864 677.256, 265.773 699.910, 258.970 "
fill = "none" stroke = "black"/>
</g>
<g>
<polygon points = "87.366, 64.188 0.000, 88.773 0.000, 0.000 68.343, 0.000 "
fill = "none" stroke = "black"/>
</g>
<g>
<polygon points = "68.517, 476.014 93.744, 488.454 159.215, 571.566 148.513, 587.905 132.224, 592.104 61.290, 532.275 45.627, 514.143 34.112, 487.513 "
fill = "none" stroke = "black"/>
</g>
<g>
<polygon points = "67.536, 105.021 101.431, 76.222 143.182, 93.320 142.845, 96.754 106.978, 137.713 79.488, 132.306 "
fill = "none" stroke = "black"/>
</g>
<g>
<polygon points = "803.771, 882.928 786.766, 917.059 711.550, 914.298 712.927, 894.553 713.903, 889.676 747.617, 862.141 773.309, 860.580 790.798, 867.289 802.935, 876.731 "
fill = "none" stroke = "black"/>
</g>
<g>
<polygon points = "720.437, 261.720 797.706, 341.253 788.443, 389.943 757.099, 403.341 751.674, 400.840 708.345, 261.619 "
fill = "none" stroke = "black"/>
</g>
<g>
<polygon points = "68.517, 476.014 96.149, 423.387 164.809, 469.977 93.744, 488.454 "
fill = "none" stroke = "black"/>
</g>
<g>
<polygon points = "750.784, 251.742 807.289, 276.043 815.027, 315.486 797.706, 341.253 720.437, 261.720 "
fill = "none" stroke = "black"/>
</g>
<g>
<polygon points = "384.176, 531.845 468.521, 472.376 474.100, 523.184 397.727, 554.317 "
fill = "none" stroke = "black"/>
</g>
<g>
<polygon points = "286.014, 916.558 275.070, 933.474 256.858, 943.245 210.963, 897.571 213.129, 879.382 279.532, 879.725 "
fill = "none" stroke = "black"/>
</g>
<g>
<polygon points = "635.305, 920.411 631.798, 924.714 585.899, 942.665 565.573, 933.220 544.689, 903.872 533.370, 827.614 591.732, 831.396 637.974, 876.915 "
fill = "none" stroke = "black"/>
</g>
<g>
<polygon points = "73.647, 201.148 74.049, 202.856 5.866, 263.587 0.000, 264.407 0.000, 151.949 "
fill = "none" stroke = "black"/>
</g>
<g>
<polygon points = "513.652, 389.053 514.936, 369.221 575.470, 381.763 579.768, 419.473 "
fill = "none" stroke = "black"/>
</g>
<g>
<polygon points = "648.792, 423.402 628.705, 442.567 586.796, 442.251 582.916, 439.020 579.768, 419.473 575.470, 381.763 580.094, 368.164 630.244, 350.295 "
fill = "none" stroke = "black"/>
</g>
<g>
<polygon points = "77.252, 856.248 107.836, 860.903 130.908, 973.429 128.109, 1000.000 0.000, 1000.000 0.000, 958.259 "
fill = "none" stroke = "black"/>
</g>
<g>
<polygon points = "689.018, 520.621 795.563, 585.056 752.867, 607.276 723.986, 608.070 674.772, 542.733 "
fill = "none" stroke = "black"/>
</g>
<g>
<polygon points = "470.087, 224.138 491.585, 197.386 522.833, 179.010 550.660, 192.633 566.591, 246.596 562.118, 255.333 553.837, 263.419 "
fill = "none" stroke = "black"/>
</g>
<g>
<polygon points = "921.635, 1000.000 914.753, 977.800 934.256, 943.333 1000.000, 982.566 1000.000, 1000.000 "
fill = "none" stroke = "black"/>
</g>
<g>
<polygon points = "451.374, 66.183 491.340, 94.072 466.948, 112.615 458.028, 114.377 416.570, 108.651 411.099, 69.037 "
fill = "none" stroke = "black"/>
</g>
<g>
<polygon points = "873.259, 269.615 836.998, 311.412 815.027, 315.486 807.289, 276.043 818.759, 262.628 866.313, 260.058 "
fill = "none" stroke = "black"/>
</g>
<g>
<polygon points = "205.096, 397.444 198.695, 400.598 115.705, 340.663 108.158, 293.112 109.075, 290.971 126.526, 274.216 167.392, 266.879 215.987, 308.864 223.310, 322.530 "
fill = "none" stroke = "black"/>
</g>
<g>
<polygon points = "204.754, 672.641 244.346, 651.183 263.942, 646.309 319.345, 649.313 330.889, 656.044 352.969, 675.739 343.031, 696.930 302.730, 718.827 247.884, 730.157 "
fill = "none" stroke = "black"/>
</g>
<g>
<polygon points = "864.421, 222.399 866.313, 260.058 818.759, 262.628 818.526, 253.553 862.270, 222.500 "
fill = "none" stroke = "black"/>
</g>
<g>
<polygon points = "178.711, 848.926 169.793, 821.212 170.660, 816.693 207.893, 804.196 251.897, 813.741 290.215, 849.371 286.192, 862.245 279.532, 879.725 213.129, 879.382 "
fill = "none" stroke = "black"/>
</g>
<g>
<polygon points = "792.736, 201.765 750.784, 251.742 720.437, 261.720 708.345, 261.619 699.910, 258.970 706.995, 205.367 792.931, 175.189 "
fill = "none" stroke = "black"/>
</g>
<g>
<polygon points = "566.591, 246.596 550.660, 192.633 572.781, 187.906 621.565, 207.421 621.705, 208.176 "
fill = "none" stroke = "black"/>
</g>
<g>
<polygon points = "251.897, 813.741 302.730, 718.827 343.031, 696.930 353.233, 789.313 326.172, 830.518 290.215, 849.371 "
fill = "none" stroke = "black"/>
</g>
<g>
<polygon points = "767.464, 58.971 656.564, 79.442 678.681, 24.232 727.832, 0.000 772.548, 0.000 "
fill = "none" stroke = "black"/>
</g>
<g>
<polygon points = "904.039, 366.936 964.808, 321.281 968.964, 381.323 943.952, 396.126 "
fill = "none" stroke = "black"/>
</g>
<g>
<polygon points = "466.948, 112.615 491.585, 197.386 470.087, 224.138 459.136, 228.623 441.415, 222.368 431.376, 202.562 458.028, 114.377 "
fill = "none" stroke = "black"/>
</g>
<g>
<polygon points = "372.430, 250.967 441.415, 222.368 459.136, 228.623 461.743, 275.435 396.496, 322.385 381.600, 302.293 "
fill = "none" stroke = "black"/>
</g>
<g>
<polygon points = "674.428, 848.185 640.430, 875.604 637.974, 876.915 591.732, 831.396 614.343, 797.236 666.248, 807.300 "
fill = "none" stroke = "black"/>
</g>
<g>
<polygon points = "191.048, 43.647 143.182, 93.320 101.431, 76.222 87.366, 64.188 68.343, 0.000 193.463, 0.000 "
fill = "none" stroke = "black"/>
</g>
<g>
<polygon points = "925.294, 453.575 938.210, 486.607 894.095, 530.103 855.795, 441.853 859.159, 426.883 "
fill = "none" stroke = "black"/>
</g>
<g>
<polygon points = "130.908, 973.429 178.711, 848.926 213.129, 879.382 210.963, 897.571 159.324, 1000.000 128.109, 1000.000 "
fill = "none" stroke = "black"/>
</g>
<g>
<polygon points = "244.346, 651.183 204.754, 672.641 170.474, 677.702 149.743, 590.997 "
fill = "none" stroke = "black"/>
</g>
<g>
<polygon points = "352.661, 312.751 305.769, 336.482 297.233, 329.264 324.326, 264.205 "
fill = "none" stroke = "black"/>
</g>
<g>
<polygon points = "256.858, 943.245 275.070, 933.474 308.421, 1000.000 186.681, 1000.000 "
fill = "none" stroke = "black"/>
</g>
<g>
<polygon points = "585.899, 942.665 631.798, 924.714 639.533, 960.386 626.022, 1000.000 570.540, 1000.000 "
fill = "none" stroke = "black"/>
</g>
<g>
<polygon points = "939.967, 724.167 929.415, 705.562 956.012, 623.272 1000.000, 600.450 1000.000, 776.672 "
fill = "none" stroke = "black"/>
</g>
<g>
<polygon points = "882.157, 333.012 888.834, 367.684 848.795, 409.053 788.443, 389.943 797.706, 341.253 815.027, 315.486 836.998, 311.412 "
fill = "none" stroke = "black"/>
</g>
<g>
<polygon points = "883.198, 273.514 900.435, 298.072 882.157, 333.012 836.998, 311.412 873.259, 269.615 "
fill = "none" stroke = "black"/>
</g>
<g>
<polygon points = "864.369, 116.822 894.860, 151.285 898.166, 192.326 874.324, 207.072 796.286, 161.659 794.276, 118.615 "
fill = "none" stroke = "black"/>
</g>
<g>
<polygon points = "471.637, 466.733 455.678, 403.804 464.627, 382.957 477.608, 375.322 505.859, 421.479 507.475, 445.594 "
fill = "none" stroke = "black"/>
</g>
<g>
<polygon points = "538.732, 74.028 536.748, 53.456 632.038, 10.373 632.182, 10.588 644.121, 86.536 641.256, 90.483 619.523, 99.582 586.595, 103.074 552.756, 90.056 "
fill = "none" stroke = "black"/>
</g>
<g>
<polygon points = "222.668, 168.917 262.627, 162.399 303.318, 185.762 305.187, 198.908 169.952, 259.373 181.128, 198.616 191.196, 180.616 "
fill = "none" stroke = "black"/>
</g>
<g>
<polygon points = "878.099, 97.634 864.369, 116.822 794.276, 118.615 780.427, 106.291 767.464, 58.971 772.548, 0.000 832.911, 0.000 "
fill = "none" stroke = "black"/>
</g>
<g>
<polygon points = "79.488, 132.306 106.978, 137.713 102.556, 168.043 73.647, 201.148 0.000, 151.949 0.000, 151.657 "
fill = "none" stroke = "black"/>
</g>
<g>
<polygon points = "940.418, 433.991 943.952, 396.126 968.964, 381.323 1000.000, 397.808 1000.000, 424.474 "
fill = "none" stroke = "black"/>
</g>
<g>
<polygon points = "305.187, 198.908 303.318, 185.762 352.233, 139.855 378.496, 141.047 431.376, 202.562 441.415, 222.368 372.430, 250.967 333.296, 239.427 309.254, 211.861 "
fill = "none" stroke = "black"/>
</g>
<g>
<polygon points = "564.518, 700.833 438.672, 656.124 456.544, 640.187 461.357, 638.594 558.164, 617.815 601.946, 619.835 614.363, 653.510 592.359, 693.594 574.746, 702.825 "
fill = "none" stroke = "black"/>
</g>
<g>
<polygon points = "688.745, 133.093 717.816, 141.452 705.007, 192.706 653.326, 170.063 "
fill = "none" stroke = "black"/>
</g>
<g>
<polygon points = "254.328, 539.178 329.503, 491.227 336.422, 490.203 330.889, 656.044 319.345, 649.313 "
fill = "none" stroke = "black"/>
</g>
<g>
<polygon points = "589.195, 119.729 572.781, 187.906 550.660, 192.633 522.833, 179.010 552.756, 90.056 586.595, 103.074 "
fill = "none" stroke = "black"/>
</g>
<g>
<polygon points = "816.209, 526.827 855.795, 441.853 894.095, 530.103 888.314, 539.327 843.659, 578.295 836.801, 579.844 "
fill = "none" stroke = "black"/>
</g>
<g>
<polygon points = "233.976, 737.611 247.884, 730.157 302.730, 718.827 251.897, 813.741 207.893, 804.196 "
fill = "none" stroke = "black"/>
</g>
<g>
<polygon points = "342.791, 487.071 367.113, 446.805 468.529, 470.379 468.521, 472.376 384.176, 531.845 "
fill = "none" stroke = "black"/>
</g>
<g>
<polygon points = "784.159, 733.844 790.798, 867.289 773.309, 860.580 719.075, 772.419 715.730, 750.000 723.423, 735.862 755.104, 728.080 "
fill = "none" stroke = "black"/>
</g>
<g>
<polygon points = "87.366, 64.188 101.431, 76.222 67.536, 105.021 0.000, 107.113 0.000, 88.773 "
fill = "none" stroke = "black"/>
</g>
<g>
<polygon points = "968.964, 381.323 964.808, 321.281 973.778, 302.354 977.933, 299.098 1000.000, 297.856 1000.000, 397.808 "
fill = "none" stroke = "black"/>
</g>
<g>
<polygon points = "563.275, 532.989 606.975, 600.243 601.946, 619.835 558.164, 617.815 514.192, 568.388 505.269, 537.992 "
fill = "none" stroke = "black"/>
</g>
<g>
<polygon points = "611.031, 740.179 592.359, 693.594 614.363, 653.510 666.707, 669.382 723.423, 735.862 715.730, 750.000 689.533, 761.051 625.407, 767.077 "
fill = "none" stroke = "black"/>
</g>
<g>
<polygon points = "451.374, 66.183 411.099, 69.037 409.979, 66.565 436.270, 0.000 445.722, 0.000 "
fill = "none" stroke = "black"/>
</g>
<g>
<polygon points = "192.568, 44.998 222.668, 168.917 191.196, 180.616 142.845, 96.754 143.182, 93.320 191.048, 43.647 "
fill = "none" stroke = "black"/>
</g>
<g>
<polygon points = "956.049, 493.305 938.210, 486.607 925.294, 453.575 940.418, 433.991 1000.000, 424.474 1000.000, 481.832 "
fill = "none" stroke = "black"/>
</g>
<g>
<polygon points = "194.321, 403.939 198.695, 400.598 205.096, 397.444 241.226, 423.499 244.751, 432.204 229.162, 533.374 199.877, 539.844 170.878, 469.520 "
fill = "none" stroke = "black"/>
</g>
<g>
<polygon points = "399.659, 347.592 389.443, 368.585 379.900, 382.986 364.601, 396.111 327.174, 370.176 305.769, 336.482 352.661, 312.751 381.600, 302.293 396.496, 322.385 "
fill = "none" stroke = "black"/>
</g>
<g>
<polygon points = "813.025, 220.260 862.270, 222.500 818.526, 253.553 "
fill = "none" stroke = "black"/>
</g>
<g>
<polygon points = "572.781, 187.906 589.195, 119.729 622.581, 203.232 621.565, 207.421 "
fill = "none" stroke = "black"/>
</g>
<g>
<polygon points = "752.867, 607.276 795.563, 585.056 836.417, 580.339 835.636, 609.521 760.932, 671.635 751.271, 654.174 "
fill = "none" stroke = "black"/>
</g>
<g>
<polygon points = "937.905, 228.049 883.198, 273.514 873.259, 269.615 866.313, 260.058 864.421, 222.399 874.324, 207.072 898.166, 192.326 936.900, 217.625 "
fill = "none" stroke = "black"/>
</g>
<g>
<polygon points = "229.162, 533.374 254.328, 539.178 319.345, 649.313 263.942, 646.309 178.241, 560.352 199.877, 539.844 "
fill = "none" stroke = "black"/>
</g>
<g>
<polygon points = "657.964, 295.824 562.306, 309.657 554.882, 298.853 553.837, 263.419 562.118, 255.333 664.833, 281.864 "
fill = "none" stroke = "black"/>
</g>
<g>
<polygon points = "343.031, 696.930 352.969, 675.739 382.545, 667.430 411.956, 670.418 486.003, 815.998 486.010, 816.023 375.834, 801.961 353.233, 789.313 "
fill = "none" stroke = "black"/>
</g>
<g>
<polygon points = "563.275, 532.989 566.433, 514.237 581.511, 476.778 657.177, 553.864 606.975, 600.243 "
fill = "none" stroke = "black"/>
</g>
<g>
<polygon points = "558.164, 617.815 461.357, 638.594 514.192, 568.388 "
fill = "none" stroke = "black"/>
</g>
<g>
<polygon points = "50.099, 796.261 45.518, 769.136 150.247, 789.553 170.660, 816.693 169.793, 821.212 107.836, 860.903 77.252, 856.248 "
fill = "none" stroke = "black"/>
</g>
<g>
<polygon points = "650.453, 170.598 622.581, 203.232 589.195, 119.729 586.595, 103.074 619.523, 99.582 "
fill = "none" stroke = "black"/>
</g>
<g>
<polygon points = "43.707, 767.306 45.518, 769.136 50.099, 796.261 0.000, 902.088 0.000, 769.689 "
fill = "none" stroke = "black"/>
</g>
<g>
<polygon points = "767.464, 58.971 780.427, 106.291 717.816, 141.452 688.745, 133.093 641.256, 90.483 644.121, 86.536 656.564, 79.442 "
fill = "none" stroke = "black"/>
</g>
<g>
<polygon points = "681.275, 884.292 699.714, 899.918 677.866, 933.754 635.305, 920.411 637.974, 876.915 640.430, 875.604 "
fill = "none" stroke = "black"/>
</g>
<g>
<polygon points = "57.284, 378.588 56.355, 376.748 53.026, 337.267 108.158, 293.112 115.705, 340.663 99.349, 407.727 "
fill = "none" stroke = "black"/>
</g>
<g>
<polygon points = "67.536, 105.021 79.488, 132.306 0.000, 151.657 0.000, 107.113 "
fill = "none" stroke = "black"/>
</g>
<g>
<polygon points = "632.038, 10.373 536.748, 53.456 516.694, 0.000 632.280, 0.000 "
fill = "none" stroke = "black"/>
</g>
<g>
<polygon points = "977.933, 299.098 973.778, 302.354 900.435, 298.072 883.198, 273.514 937.905, 228.049 "
fill = "none" stroke = "black"/>
</g>
<g>
<polygon points = "327.334, 62.534 352.233, 139.855 303.318, 185.762 262.627, 162.399 256.186, 88.906 "
fill = "none" stroke = "black"/>
</g>
<g>
<polygon points = "973.778, 302.354 964.808, 321.281 904.039, 366.936 888.834, 367.684 882.157, 333.012 900.435, 298.072 "
fill = "none" stroke = "black"/>
</g>
<g>
<polygon points = "470.481, 468.320 468.529, 470.379 367.113, 446.805 364.396, 430.149 364.601, 396.111 379.900, 382.986 455.678, 403.804 471.637, 466.733 "
fill = "none" stroke = "black"/>
</g>
<g>
<polygon points = "130.908, 973.429 107.836, 860.903 169.793, 821.212 178.711, 848.926 "
fill = "none" stroke = "black"/>
</g>
<g>
<polygon points = "124.256, 596.107 89.116, 695.749 65.964, 703.488 30.706, 647.565 60.909, 608.518 78.608, 603.536 "
fill = "none" stroke = "black"/>
</g>
<g>
<polygon points = "779.748, 941.447 704.940, 955.766 686.758, 936.946 711.550, 914.298 786.766, 917.059 "
fill = "none" stroke = "black"/>
</g>
<g>
<polygon points = "96.149, 423.387 100.811, 410.789 194.321, 403.939 170.878, 469.520 164.809, 469.977 "
fill = "none" stroke = "black"/>
</g>
<g>
<polygon points = "686.758, 936.946 677.866, 933.754 699.714, 899.918 712.927, 894.553 711.550, 914.298 "
fill = "none" stroke = "black"/>
</g>
<g>
<polygon points = "275.070, 933.474 286.014, 916.558 418.954, 948.118 421.668, 956.960 427.727, 995.757 427.621, 1000.000 308.421, 1000.000 "
fill = "none" stroke = "black"/>
</g>
<g>
<polygon points = "286.014, 916.558 279.532, 879.725 286.192, 862.245 400.885, 920.152 419.466, 940.506 418.954, 948.118 "
fill = "none" stroke = "black"/>
</g>
<g>
<polygon points = "379.900, 382.986 389.443, 368.585 458.392, 378.194 464.627, 382.957 455.678, 403.804 "
fill = "none" stroke = "black"/>
</g>
<g>
<polygon points = "639.533, 960.386 671.783, 1000.000 626.022, 1000.000 "
fill = "none" stroke = "black"/>
</g>
<g>
<polygon points = "894.860, 151.285 864.369, 116.822 878.099, 97.634 911.600, 66.664 1000.000, 83.458 1000.000, 119.988 "
fill = "none" stroke = "black"/>
</g>
<g>
<polygon points = "699.714, 899.918 681.275, 884.292 713.903, 889.676 712.927, 894.553 "
fill = "none" stroke = "black"/>
</g>
<g>
<polygon points = "495.919, 716.229 513.579, 736.905 486.003, 815.998 411.956, 670.418 413.317, 669.969 "
fill = "none" stroke = "black"/>
</g>
<g>
<polygon points = "480.107, 312.613 461.743, 275.435 459.136, 228.623 470.087, 224.138 553.837, 263.419 554.882, 298.853 "
fill = "none" stroke = "black"/>
</g>
<g>
<polygon points = "249.819, 420.457 327.174, 370.176 364.601, 396.111 364.396, 430.149 "
fill = "none" stroke = "black"/>
</g>
<g>
<polygon points = "163.767, 714.001 150.247, 789.553 45.518, 769.136 43.707, 767.306 65.964, 703.488 89.116, 695.749 159.167, 699.801 "
fill = "none" stroke = "black"/>
</g>
<g>
<polygon points = "505.859, 421.479 477.608, 375.322 493.511, 355.273 505.626, 359.775 514.936, 369.221 513.652, 389.053 "
fill = "none" stroke = "black"/>
</g>
<g>
<polygon points = "256.186, 88.906 262.627, 162.399 222.668, 168.917 192.568, 44.998 "
fill = "none" stroke = "black"/>
</g>
<g>
<polygon points = "263.942, 646.309 244.346, 651.183 149.743, 590.997 148.513, 587.905 159.215, 571.566 178.241, 560.352 "
fill = "none" stroke = "black"/>
</g>
<g>
<polygon points = "74.049, 202.856 126.526, 274.216 109.075, 290.971 5.866, 263.587 "
fill = "none" stroke = "black"/>
</g>
<g>
<polygon points = "486.010, 816.023 486.003, 815.998 513.579, 736.905 561.719, 721.104 541.220, 799.190 531.516, 826.608 490.780, 822.456 "
fill = "none" stroke = "black"/>
</g>
<g>
<polygon points = "132.224, 592.104 124.256, 596.107 78.608, 603.536 61.290, 532.275 "
fill = "none" stroke = "black"/>
</g>
<g>
<polygon points = "229.162, 533.374 244.751, 432.204 329.503, 491.227 254.328, 539.178 "
fill = "none" stroke = "black"/>
</g>
<g>
<polygon points = "704.940, 955.766 779.748, 941.447 789.819, 1000.000 702.488, 1000.000 "
fill = "none" stroke = "black"/>
</g>
<g>
<polygon points = "233.976, 737.611 163.767, 714.001 159.167, 699.801 170.474, 677.702 204.754, 672.641 247.884, 730.157 "
fill = "none" stroke = "black"/>
</g>
<g>
<polygon points = "688.745, 133.093 653.326, 170.063 650.453, 170.598 619.523, 99.582 641.256, 90.483 "
fill = "none" stroke = "black"/>
</g>
<g>
<polygon points = "929.415, 705.562 850.475, 682.237 835.636, 609.521 836.417, 580.339 836.801, 579.844 843.659, 578.295 956.012, 623.272 "
fill = "none" stroke = "black"/>
</g>
<g>
<polygon points = "536.748, 53.456 538.732, 74.028 491.340, 94.072 451.374, 66.183 445.722, 0.000 516.694, 0.000 "
fill = "none" stroke = "black"/>
</g>
<g>
<polygon points = "507.475, 445.594 505.859, 421.479 513.652, 389.053 579.768, 419.473 582.916, 439.020 "
fill = "none" stroke = "black"/>
</g>
<g>
<polygon points = "466.948, 112.615 491.340, 94.072 538.732, 74.028 552.756, 90.056 522.833, 179.010 491.585, 197.386 "
fill = "none" stroke = "black"/>
</g>
<g>
<polygon points = "427.727, 995.757 565.573, 933.220 585.899, 942.665 570.540, 1000.000 427.621, 1000.000 "
fill = "none" stroke = "black"/>
</g>
<g>
<polygon points = "427.727, 995.757 421.668, 956.960 544.689, 903.872 565.573, 933.220 "
fill = "none" stroke = "black"/>
</g>
<g>
<polygon points = "976.965, 838.798 928.147, 907.041 864.765, 922.606 803.771, 882.928 802.935, 876.731 860.616, 826.114 "
fill = "none" stroke = "black"/>
</g>
<g>
<polygon points = "977.733, 565.930 888.314, 539.327 894.095, 530.103 938.210, 486.607 956.049, 493.305 "
fill = "none" stroke = "black"/>
</g>
<g>
<polygon points = "332.498, 48.416 327.334, 62.534 256.186, 88.906 192.568, 44.998 191.048, 43.647 193.463, 0.000 329.488, 0.000 "
fill = "none" stroke = "black"/>
</g>
<g>
<polygon points = "848.795, 409.053 859.159, 426.883 855.795, 441.853 816.209, 526.827 748.049, 472.058 757.099, 403.341 788.443, 389.943 "
fill = "none" stroke = "black"/>
</g>
<g>
<polygon points = "977.933, 299.098 937.905, 228.049 936.900, 217.625 1000.000, 174.220 1000.000, 297.856 "
fill = "none" stroke = "black"/>
</g>
<g>
<polygon points = "486.010, 816.023 490.780, 822.456 426.755, 921.479 375.834, 801.961 "
fill = "none" stroke = "black"/>
</g>
<g>
<polygon points = "816.209, 526.827 836.801, 579.844 836.417, 580.339 795.563, 585.056 689.018, 520.621 689.359, 519.190 748.049, 472.058 "
fill = "none" stroke = "black"/>
</g>
<g>
<polygon points = "911.600, 66.664 878.099, 97.634 832.911, 0.000 891.244, 0.000 "
fill = "none" stroke = "black"/>
</g>
<g>
<polygon points = "715.730, 750.000 719.075, 772.419 689.130, 843.689 674.428, 848.185 666.248, 807.300 689.533, 761.051 "
fill = "none" stroke = "black"/>
</g>
<g>
<polygon points = "708.936, 393.546 648.792, 423.402 630.244, 350.295 657.097, 322.845 "
fill = "none" stroke = "black"/>
</g>
<g>
<polygon points = "513.579, 736.905 495.919, 716.229 564.518, 700.833 574.746, 702.825 561.719, 721.104 "
fill = "none" stroke = "black"/>
</g>
<g>
<polygon points = "352.661, 312.751 324.326, 264.205 333.296, 239.427 372.430, 250.967 381.600, 302.293 "
fill = "none" stroke = "black"/>
</g>
<g>
<polygon points = "249.819, 420.457 241.226, 423.499 205.096, 397.444 223.310, 322.530 297.233, 329.264 305.769, 336.482 327.174, 370.176 "
fill = "none" stroke = "black"/>
</g>
<g>
<polygon points = "468.521, 472.376 468.529, 470.379 470.481, 468.320 566.433, 514.237 563.275, 532.989 505.269, 537.992 476.333, 526.383 474.100, 523.184 "
fill = "none" stroke = "black"/>
</g>
<g>
<polygon points = "480.107, 312.613 478.705, 321.571 436.904, 343.642 399.659, 347.592 396.496, 322.385 461.743, 275.435 "
fill = "none" stroke = "black"/>
</g>
<g>
<polygon points = "752.867, 607.276 751.271, 654.174 692.991, 648.790 723.986, 608.070 "
fill = "none" stroke = "black"/>
</g>
<g>
<polygon points = "713.903, 889.676 681.275, 884.292 640.430, 875.604 674.428, 848.185 689.130, 843.689 747.617, 862.141 "
fill = "none" stroke = "black"/>
</g>
<g>
<polygon points = "870.120, 961.445 914.753, 977.800 921.635, 1000.000 845.473, 1000.000 "
fill = "none" stroke = "black"/>
</g>
<g>
<polygon points = "639.533, 960.386 631.798, 924.714 635.305, 920.411 677.866, 933.754 686.758, 936.946 704.940, 955.766 702.488, 1000.000 671.783, 1000.000 "
fill = "none" stroke = "black"/>
</g>
<g>
<polygon points = "505.626, 359.775 562.419, 316.160 580.094, 368.164 575.470, 381.763 514.936, 369.221 "
fill = "none" stroke = "black"/>
</g>
<g>
<polygon points = "233.976, 737.611 207.893, 804.196 170.660, 816.693 150.247, 789.553 163.767, 714.001 "
fill = "none" stroke = "black"/>
</g>
<g>
<polygon points = "940.418, 433.991 925.294, 453.575 859.159, 426.883 848.795, 409.053 888.834, 367.684 904.039, 366.936 943.952, 396.126 "
fill = "none" stroke = "black"/>
</g>
<g>
<polygon points = "911.600, 66.664 891.244, 0.000 1000.000, 0.000 1000.000, 83.458 "
fill = "none" stroke = "black"/>
</g>
<g>
<polygon points = "792.736, 201.765 813.025, 220.260 818.526, 253.553 818.759, 262.628 807.289, 276.043 750.784, 251.742 "
fill = "none" stroke = "black"/>
</g>
<g>
<polygon points = "210.963, 897.571 256.858, 943.245 186.681, 1000.000 159.324, 1000.000 "
fill = "none" stroke = "black"/>
</g>
<g>
<polygon points = "779.748, 941.447 786.766, 917.059 803.771, 882.928 864.765, 922.606 870.120, 961.445 845.473, 1000.000 789.819, 1000.000 "
fill = "none" stroke = "black"/>
</g>
<g>
<polygon points = "436.904, 343.642 478.705, 321.571 493.511, 355.273 477.608, 375.322 464.627, 382.957 458.392, 378.194 "
fill = "none" stroke = "black"/>
</g>
<g>
<polygon points = "50.099, 796.261 77.252, 856.248 0.000, 958.259 0.000, 902.088 "
fill = "none" stroke = "black"/>
</g>
<g>
<polygon points = "56.355, 376.748 57.284, 378.588 0.000, 440.398 0.000, 376.898 "
fill = "none" stroke = "black"/>
</g>
<g>
<polygon points = "977.733, 565.930 956.049, 493.305 1000.000, 481.832 1000.000, 596.650 "
fill = "none" stroke = "black"/>
</g>
<g>
<polygon points = "541.220, 799.190 611.031, 740.179 625.407, 767.077 614.343, 797.236 591.732, 831.396 533.370, 827.614 531.516, 826.608 "
fill = "none" stroke = "black"/>
</g>
<g>
<polygon points = "244.751, 432.204 241.226, 423.499 249.819, 420.457 364.396, 430.149 367.113, 446.805 342.791, 487.071 336.422, 490.203 329.503, 491.227 "
fill = "none" stroke = "black"/>
</g>
<g>
<polygon points = "934.256, 943.333 928.147, 907.041 976.965, 838.798 1000.000, 828.937 1000.000, 982.566 "
fill = "none" stroke = "black"/>
</g>
<g>
<polygon points = "874.324, 207.072 864.421, 222.399 862.270, 222.500 813.025, 220.260 792.736, 201.765 792.931, 175.189 796.286, 161.659 "
fill = "none" stroke = "black"/>
</g>
<g>
<polygon points = "458.392, 378.194 389.443, 368.585 399.659, 347.592 436.904, 343.642 "
fill = "none" stroke = "black"/>
</g>
<g>
<polygon points = "505.626, 359.775 493.511, 355.273 478.705, 321.571 480.107, 312.613 554.882, 298.853 562.306, 309.657 562.419, 316.160 "
fill = "none" stroke = "black"/>
</g>
<g>
<polygon points = "336.422, 490.203 342.791, 487.071 384.176, 531.845 397.727, 554.317 382.545, 667.430 352.969, 675.739 330.889, 656.044 "
fill = "none" stroke = "black"/>
</g>
<g>
<polygon points = "495.919, 716.229 413.317, 669.969 438.672, 656.124 564.518, 700.833 "
fill = "none" stroke = "black"/>
</g>
<g>
<polygon points = "470.481, 468.320 471.637, 466.733 507.475, 445.594 582.916, 439.020 586.796, 442.251 581.511, 476.778 566.433, 514.237 "
fill = "none" stroke = "black"/>
</g>
<g>
<polygon points = "976.965, 838.798 860.616, 826.114 851.993, 779.322 939.967, 724.167 1000.000, 776.672 1000.000, 828.937 "
fill = "none" stroke = "black"/>
</g>
<g>
<polygon points = "581.511, 476.778 586.796, 442.251 628.705, 442.567 689.359, 519.190 689.018, 520.621 674.772, 542.733 657.177, 553.864 "
fill = "none" stroke = "black"/>
</g>
<g>
<circle cx = "940.476" cy = "168.175" r="5"/></g>
<g>
<circle cx = "143.645" cy = "498.107" r="5"/></g>
<g>
<circle cx = "32.522" cy = "564.707" r="5"/></g>
<g>
<circle cx = "902.617" cy = "949.414" r="5"/></g>
<g>
<circle cx = "732.581" cy = "663.139" r="5"/></g>
<g>
<circle cx = "336.318" cy = "883.817" r="5"/></g>
<g>
<circle cx = "666.996" cy = "5.327" r="5"/></g>
<g>
<circle cx = "511.638" cy = "901.764" r="5"/></g>
<g>
<circle cx = "376.773" cy = "850.096" r="5"/></g>
<g>
<circle cx = "658.634" cy = "33.825" r="5"/></g>
<g>
<circle cx = "498.116" cy = "576.841" r="5"/></g>
<g>
<circle cx = "285.561" cy = "276.219" r="5"/></g>
<g>
<circle cx = "122.875" cy = "196.109" r="5"/></g>
<g>
<circle cx = "666.464" cy = "192.232" r="5"/></g>
<g>
<circle cx = "63.786" cy = "563.120" r="5"/></g>
<g>
<circle cx = "604.153" cy = "252.330" r="5"/></g>
<g>
<circle cx = "655.997" cy = "795.503" r="5"/></g>
<g>
<circle cx = "578.082" cy = "762.342" r="5"/></g>
<g>
<circle cx = "790.420" cy = "669.110" r="5"/></g>
<g>
<circle cx = "134.219" cy = "370.948" r="5"/></g>
<g>
<circle cx = "38.851" cy = "300.993" r="5"/></g>
<g>
<circle cx = "136.501" cy = "161.092" r="5"/></g>
<g>
<circle cx = "48.825" cy = "411.718" r="5"/></g>
<g>
<circle cx = "434.288" cy = "147.231" r="5"/></g>
<g>
<circle cx = "392.486" cy = "37.335" r="5"/></g>
<g>
<circle cx = "245.876" cy = "238.062" r="5"/></g>
<g>
<circle cx = "688.532" cy = "606.916" r="5"/></g>
<g>
<circle cx = "688.722" cy = "450.521" r="5"/></g>
<g>
<circle cx = "4.775" cy = "697.620" r="5"/></g>
<g>
<circle cx = "18.305" cy = "592.574" r="5"/></g>
<g>
<circle cx = "873.185" cy = "739.362" r="5"/></g>
<g>
<circle cx = "604.880" cy = "329.759" r="5"/></g>
<g>
<circle cx = "741.550" cy = "180.443" r="5"/></g>
<g>
<circle cx = "719.367" cy = "824.281" r="5"/></g>
<g>
<circle cx = "122.092" cy = "658.106" r="5"/></g>
<g>
<circle cx = "381.325" cy = "84.986" r="5"/></g>
<g>
<circle cx = "932.013" cy = "568.120" r="5"/></g>
<g>
<circle cx = "24.824" cy = "364.126" r="5"/></g>
<g>
<circle cx = "438.796" cy = "566.526" r="5"/></g>
<g>
<circle cx = "809.168" cy = "793.879" r="5"/></g>
<g>
<circle cx = "708.763" cy = "333.093" r="5"/></g>
<g>
<circle cx = "52.288" cy = "53.314" r="5"/></g>
<g>
<circle cx = "91.445" cy = "539.228" r="5"/></g>
<g>
<circle cx = "79.907" cy = "111.534" r="5"/></g>
<g>
<circle cx = "724.159" cy = "903.144" r="5"/></g>
<g>
<circle cx = "748.561" cy = "320.707" r="5"/></g>
<g>
<circle cx = "132.624" cy = "455.717" r="5"/></g>
<g>
<circle cx = "778.587" cy = "291.536" r="5"/></g>
<g>
<circle cx = "418.556" cy = "516.876" r="5"/></g>
<g>
<circle cx = "232.413" cy = "907.527" r="5"/></g>
<g>
<circle cx = "575.703" cy = "892.254" r="5"/></g>
<g>
<circle cx = "27.330" cy = "218.570" r="5"/></g>
<g>
<circle cx = "528.702" cy = "393.057" r="5"/></g>
<g>
<circle cx = "623.579" cy = "382.243" r="5"/></g>
<g>
<circle cx = "90.135" cy = "891.923" r="5"/></g>
<g>
<circle cx = "732.663" cy = "573.675" r="5"/></g>
<g>
<circle cx = "539.979" cy = "219.473" r="5"/></g>
<g>
<circle cx = "945.336" cy = "973.587" r="5"/></g>
<g>
<circle cx = "444.081" cy = "76.318" r="5"/></g>
<g>
<circle cx = "839.717" cy = "279.543" r="5"/></g>
<g>
<circle cx = "150.275" cy = "348.716" r="5"/></g>
<g>
<circle cx = "233.495" cy = "691.360" r="5"/></g>
<g>
<circle cx = "837.771" cy = "243.553" r="5"/></g>
<g>
<circle cx = "232.703" cy = "851.437" r="5"/></g>
<g>
<circle cx = "749.546" cy = "203.213" r="5"/></g>
<g>
<circle cx = "574.206" cy = "209.369" r="5"/></g>
<g>
<circle cx = "288.101" cy = "791.860" r="5"/></g>
<g>
<circle cx = "686.561" cy = "45.013" r="5"/></g>
<g>
<circle cx = "944.064" cy = "368.390" r="5"/></g>
<g>
<circle cx = "459.597" cy = "154.880" r="5"/></g>
<g>
<circle cx = "413.207" cy = "286.318" r="5"/></g>
<g>
<circle cx = "652.331" cy = "814.411" r="5"/></g>
<g>
<circle cx = "110.855" cy = "35.957" r="5"/></g>
<g>
<circle cx = "885.753" cy = "483.430" r="5"/></g>
<g>
<circle cx = "187.774" cy = "902.211" r="5"/></g>
<g>
<circle cx = "204.760" cy = "638.341" r="5"/></g>
<g>
<circle cx = "343.106" cy = "300.183" r="5"/></g>
<g>
<circle cx = "273.099" cy = "983.365" r="5"/></g>
<g>
<circle cx = "612.608" cy = "986.618" r="5"/></g>
<g>
<circle cx = "987.284" cy = "674.651" r="5"/></g>
<g>
<circle cx = "850.962" cy = "340.187" r="5"/></g>
<g>
<circle cx = "868.164" cy = "304.223" r="5"/></g>
<g>
<circle cx = "852.536" cy = "175.259" r="5"/></g>
<g>
<circle cx = "482.270" cy = "400.840" r="5"/></g>
<g>
<circle cx = "614.136" cy = "40.820" r="5"/></g>
<g>
<circle cx = "236.459" cy = "217.002" r="5"/></g>
<g>
<circle cx = "849.562" cy = "59.066" r="5"/></g>
<g>
<circle cx = "72.008" cy = "151.690" r="5"/></g>
<g>
<circle cx = "968.319" cy = "409.375" r="5"/></g>
<g>
<circle cx = "376.235" cy = "197.135" r="5"/></g>
<g>
<circle cx = "527.700" cy = "666.220" r="5"/></g>
<g>
<circle cx = "678.530" cy = "164.693" r="5"/></g>
<g>
<circle cx = "313.657" cy = "553.889" r="5"/></g>
<g>
<circle cx = "565.308" cy = "167.736" r="5"/></g>
<g>
<circle cx = "865.702" cy = "492.132" r="5"/></g>
<g>
<circle cx = "250.046" cy = "771.479" r="5"/></g>
<g>
<circle cx = "409.823" cy = "504.490" r="5"/></g>
<g>
<circle cx = "765.232" cy = "796.066" r="5"/></g>
<g>
<circle cx = "63.107" cy = "91.760" r="5"/></g>
<g>
<circle cx = "991.846" cy = "365.082" r="5"/></g>
<g>
<circle cx = "532.285" cy = "566.812" r="5"/></g>
<g>
<circle cx = "650.166" cy = "733.449" r="5"/></g>
<g>
<circle cx = "442.725" cy = "57.177" r="5"/></g>
<g>
<circle cx = "201.703" cy = "123.500" r="5"/></g>
<g>
<circle cx = "974.599" cy = "448.690" r="5"/></g>
<g>
<circle cx = "210.345" cy = "470.602" r="5"/></g>
<g>
<circle cx = "357.130" cy = "327.894" r="5"/></g>
<g>
<circle cx = "834.315" cy = "238.683" r="5"/></g>
<g>
<circle cx = "588.615" cy = "173.347" r="5"/></g>
<g>
<circle cx = "768.795" cy = "643.102" r="5"/></g>
<g>
<circle cx = "893.057" cy = "240.775" r="5"/></g>
<g>
<circle cx = "238.545" cy = "598.230" r="5"/></g>
<g>
<circle cx = "597.441" cy = "278.317" r="5"/></g>
<g>
<circle cx = "417.352" cy = "777.586" r="5"/></g>
<g>
<circle cx = "606.770" cy = "518.413" r="5"/></g>
<g>
<circle cx = "510.519" cy = "586.176" r="5"/></g>
<g>
<circle cx = "100.165" cy = "826.022" r="5"/></g>
<g>
<circle cx = "626.581" cy = "158.168" r="5"/></g>
<g>
<circle cx = "12.581" cy = "840.812" r="5"/></g>
<g>
<circle cx = "696.876" cy = "100.892" r="5"/></g>
<g>
<circle cx = "697.902" cy = "899.752" r="5"/></g>
<g>
<circle cx = "85.327" cy = "359.024" r="5"/></g>
<g>
<circle cx = "63.936" cy = "118.530" r="5"/></g>
<g>
<circle cx = "597.354" cy = "3.702" r="5"/></g>
<g>
<circle cx = "917.189" cy = "269.812" r="5"/></g>
<g>
<circle cx = "296.590" cy = "112.271" r="5"/></g>
<g>
<circle cx = "913.786" cy = "328.089" r="5"/></g>
<g>
<circle cx = "430.887" cy = "413.871" r="5"/></g>
<g>
<circle cx = "136.317" cy = "882.454" r="5"/></g>
<g>
<circle cx = "87.049" cy = "645.748" r="5"/></g>
<g>
<circle cx = "723.307" cy = "926.347" r="5"/></g>
<g>
<circle cx = "139.668" cy = "445.337" r="5"/></g>
<g>
<circle cx = "700.611" cy = "901.502" r="5"/></g>
<g>
<circle cx = "316.225" cy = "961.745" r="5"/></g>
<g>
<circle cx = "333.312" cy = "889.771" r="5"/></g>
<g>
<circle cx = "439.510" cy = "382.485" r="5"/></g>
<g>
<circle cx = "644.817" cy = "997.604" r="5"/></g>
<g>
<circle cx = "923.813" cy = "112.197" r="5"/></g>
<g>
<circle cx = "699.253" cy = "898.158" r="5"/></g>
<g>
<circle cx = "495.390" cy = "737.893" r="5"/></g>
<g>
<circle cx = "511.187" cy = "280.861" r="5"/></g>
<g>
<circle cx = "298.105" cy = "413.073" r="5"/></g>
<g>
<circle cx = "117.532" cy = "736.943" r="5"/></g>
<g>
<circle cx = "498.211" cy = "391.083" r="5"/></g>
<g>
<circle cx = "220.463" cy = "118.943" r="5"/></g>
<g>
<circle cx = "215.939" cy = "620.769" r="5"/></g>
<g>
<circle cx = "53.056" cy = "247.453" r="5"/></g>
<g>
<circle cx = "527.211" cy = "748.987" r="5"/></g>
<g>
<circle cx = "73.228" cy = "560.825" r="5"/></g>
<g>
<circle cx = "266.002" cy = "479.178" r="5"/></g>
<g>
<circle cx = "732.874" cy = "976.323" r="5"/></g>
<g>
<circle cx = "214.673" cy = "705.475" r="5"/></g>
<g>
<circle cx = "657.611" cy = "144.653" r="5"/></g>
<g>
<circle cx = "900.585" cy = "646.629" r="5"/></g>
<g>
<circle cx = "458.371" cy = "55.841" r="5"/></g>
<g>
<circle cx = "526.484" cy = "397.878" r="5"/></g>
<g>
<circle cx = "495.807" cy = "144.356" r="5"/></g>
<g>
<circle cx = "540.795" cy = "967.381" r="5"/></g>
<g>
<circle cx = "523.549" cy = "929.366" r="5"/></g>
<g>
<circle cx = "885.894" cy = "881.314" r="5"/></g>
<g>
<circle cx = "940.646" cy = "539.103" r="5"/></g>
<g>
<circle cx = "271.600" cy = "44.851" r="5"/></g>
<g>
<circle cx = "810.929" cy = "466.615" r="5"/></g>
<g>
<circle cx = "984.359" cy = "231.969" r="5"/></g>
<g>
<circle cx = "409.899" cy = "835.983" r="5"/></g>
<g>
<circle cx = "756.273" cy = "534.635" r="5"/></g>
<g>
<circle cx = "867.164" cy = "50.919" r="5"/></g>
<g>
<circle cx = "681.829" cy = "808.509" r="5"/></g>
<g>
<circle cx = "651.333" cy = "375.201" r="5"/></g>
<g>
<circle cx = "517.399" cy = "719.094" r="5"/></g>
<g>
<circle cx = "346.417" cy = "298.250" r="5"/></g>
<g>
<circle cx = "276.169" cy = "379.326" r="5"/></g>
<g>
<circle cx = "526.951" cy = "504.973" r="5"/></g>
<g>
<circle cx = "436.004" cy = "317.999" r="5"/></g>
<g>
<circle cx = "734.540" cy = "641.937" r="5"/></g>
<g>
<circle cx = "702.755" cy = "876.936" r="5"/></g>
<g>
<circle cx = "887.149" cy = "991.623" r="5"/></g>
<g>
<circle cx = "674.905" cy = "973.109" r="5"/></g>
<g>
<circle cx = "537.039" cy = "352.817" r="5"/></g>
<g>
<circle cx = "199.178" cy = "751.553" r="5"/></g>
<g>
<circle cx = "917.554" cy = "404.637" r="5"/></g>
<g>
<circle cx = "939.660" cy = "28.782" r="5"/></g>
<g>
<circle cx = "798.793" cy = "244.553" r="5"/></g>
<g>
<circle cx = "221.023" cy = "918.972" r="5"/></g>
<g>
<circle cx = "835.580" cy = "958.657" r="5"/></g>
<g>
<circle cx = "457.571" cy = "358.847" r="5"/></g>
<g>
<circle cx = "39.421" cy = "853.518" r="5"/></g>
<g>
<circle cx = "24.891" cy = "389.537" r="5"/></g>
<g>
<circle cx = "994.040" cy = "523.161" r="5"/></g>
<g>
<circle cx = "583.691" cy = "768.978" r="5"/></g>
<g>
<circle cx = "296.179" cy = "435.846" r="5"/></g>
<g>
<circle cx = "966.143" cy = "938.720" r="5"/></g>
<g>
<circle cx = "835.900" cy = "203.846" r="5"/></g>
<g>
<circle cx = "441.403" cy = "368.903" r="5"/></g>
<g>
<circle cx = "520.454" cy = "331.221" r="5"/></g>
<g>
<circle cx = "354.892" cy = "555.265" r="5"/></g>
<g>
<circle cx = "514.114" cy = "704.459" r="5"/></g>
<g>
<circle cx = "534.450" cy = "489.302" r="5"/></g>
<g>
<circle cx = "897.194" cy = "777.658" r="5"/></g>
<g>
<circle cx = "622.669" cy = "502.807" r="5"/></g>
</svg>
